<svg width="43" height="42" viewBox="0 0 43 42" fill="none" xmlns="http://www.w3.org/2000/svg">
<path d="M34.625 39.375C37.5245 39.375 39.875 37.0245 39.875 34.125C39.875 31.2255 37.5245 28.875 34.625 28.875C31.7255 28.875 29.375 31.2255 29.375 34.125C29.375 37.0245 31.7255 39.375 34.625 39.375Z" fill="#81C618"/>
<path d="M13.625 17.0625H16.25V19.6875H13.625V17.0625ZM13.625 23.625H16.25V26.25H13.625V23.625ZM13.625 30.1875H16.25V32.8125H13.625V30.1875ZM18.875 17.0625H29.375V19.6875H18.875V17.0625ZM18.875 23.625H29.375V26.25H18.875V23.625ZM18.875 30.1875H24.125V32.8125H18.875V30.1875Z" fill="#81C618"/>
<path d="M9.6875 36.75V9.1875H13.625V13.125H29.375V9.1875H33.3125V23.625H35.9375V9.1875C35.9375 8.49131 35.6609 7.82363 35.1687 7.33134C34.6764 6.83906 34.0087 6.5625 33.3125 6.5625H29.375V5.25C29.375 4.55381 29.0984 3.88613 28.6062 3.39384C28.1139 2.90156 27.4462 2.625 26.75 2.625H16.25C15.5538 2.625 14.8861 2.90156 14.3938 3.39384C13.9016 3.88613 13.625 4.55381 13.625 5.25V6.5625H9.6875C8.99131 6.5625 8.32363 6.83906 7.83134 7.33134C7.33906 7.82363 7.0625 8.49131 7.0625 9.1875V36.75C7.0625 37.4462 7.33906 38.1139 7.83134 38.6062C8.32363 39.0984 8.99131 39.375 9.6875 39.375H24.125V36.75H9.6875ZM16.25 5.25H26.75V10.5H16.25V5.25Z" fill="#81C618"/>
</svg>
