<svg width="25" height="25" viewBox="0 0 25 25" fill="none" xmlns="http://www.w3.org/2000/svg">
<path d="M21.5 16.59V11.598C21.5 7.308 21.5 5.165 20.182 3.832C18.864 2.5 16.742 2.5 12.5 2.5C8.258 2.5 6.136 2.5 4.818 3.832C3.5 5.164 3.5 7.31 3.5 11.598V16.591C3.5 19.687 3.5 21.236 4.234 21.912C4.584 22.235 5.026 22.438 5.497 22.492C6.484 22.605 7.637 21.585 9.942 19.546C10.962 18.645 11.471 18.194 12.06 18.076C12.35 18.016 12.65 18.016 12.94 18.076C13.53 18.194 14.039 18.645 15.058 19.546C17.363 21.585 18.516 22.605 19.503 22.491C19.973 22.438 20.416 22.235 20.766 21.912C21.5 21.236 21.5 19.687 21.5 16.59Z" stroke="#61605F" stroke-width="1.5"/>
<path d="M15.5 6.5H9.5" stroke="#61605F" stroke-width="1.5" stroke-linecap="round"/>
</svg>
