<svg width="16" height="16" viewBox="0 0 16 16" fill="none" xmlns="http://www.w3.org/2000/svg">
<path d="M1.33333 8.00008C1.33333 5.48608 1.33333 4.22875 2.11467 3.44808C2.896 2.66741 4.15267 2.66675 6.66667 2.66675H9.33333C11.8473 2.66675 13.1047 2.66675 13.8853 3.44808C14.666 4.22941 14.6667 5.48608 14.6667 8.00008V9.33341C14.6667 11.8474 14.6667 13.1047 13.8853 13.8854C13.104 14.6661 11.8473 14.6667 9.33333 14.6667H6.66667C4.15267 14.6667 2.89533 14.6667 2.11467 13.8854C1.334 13.1041 1.33333 11.8474 1.33333 9.33341V8.00008Z" stroke="black" stroke-opacity="0.9" stroke-width="1.5"/>
<path d="M4.66666 2.66675V1.66675M11.3333 2.66675V1.66675" stroke="black" stroke-opacity="0.9" stroke-width="1.5" stroke-linecap="round"/>
<path d="M11 12C11.5523 12 12 11.5523 12 11C12 10.4477 11.5523 10 11 10C10.4477 10 10 10.4477 10 11C10 11.5523 10.4477 12 11 12Z" stroke="black" stroke-opacity="0.9" stroke-width="1.5"/>
<path d="M1.66666 6H14.3333" stroke="black" stroke-opacity="0.9" stroke-width="1.5" stroke-linecap="round"/>
</svg>
