<svg width="16" height="16" viewBox="0 0 16 16" fill="none" xmlns="http://www.w3.org/2000/svg">
<path d="M15.5 9.5V8C15.5 7.37075 15.5 6.81125 15.4902 6.3125H0.50975C0.5 6.81125 0.5 7.37075 0.5 8V9.5C0.5 12.3282 0.5 13.7427 1.379 14.621C2.258 15.4992 3.67175 15.5 6.5 15.5H9.5C12.3282 15.5 13.7427 15.5 14.621 14.621C15.4992 13.742 15.5 12.3282 15.5 9.5ZM4.8125 0.875C4.8125 0.725816 4.75324 0.582742 4.64775 0.477252C4.54226 0.371763 4.39918 0.3125 4.25 0.3125C4.10082 0.3125 3.95774 0.371763 3.85225 0.477252C3.74676 0.582742 3.6875 0.725816 3.6875 0.875V2.06C2.6075 2.14625 1.8995 2.35775 1.379 2.879C0.85775 3.3995 0.64625 4.10825 0.55925 5.1875H15.4407C15.3537 4.1075 15.1422 3.3995 14.621 2.879C14.1005 2.35775 13.3917 2.14625 12.3125 2.05925V0.875C12.3125 0.725816 12.2532 0.582742 12.1477 0.477252C12.0423 0.371763 11.8992 0.3125 11.75 0.3125C11.6008 0.3125 11.4577 0.371763 11.3523 0.477252C11.2468 0.582742 11.1875 0.725816 11.1875 0.875V2.00975C10.6887 2 10.1292 2 9.5 2H6.5C5.87075 2 5.31125 2 4.8125 2.00975V0.875Z" fill="#81C618"/>
</svg>
