<svg width="23" height="21" viewBox="0 0 23 21" fill="none" xmlns="http://www.w3.org/2000/svg">
<path fill-rule="evenodd" clip-rule="evenodd" d="M7.098 2.987C7.365 1.677 8.531 0.75 9.866 0.75H13.134C14.469 0.75 15.634 1.677 15.902 2.987C15.9315 3.13125 16.0088 3.26137 16.1212 3.35642C16.2337 3.45147 16.3748 3.50591 16.522 3.511H16.555C17.958 3.573 19.036 3.745 19.936 4.336C20.503 4.708 20.991 5.186 21.371 5.745C21.844 6.439 22.052 7.237 22.152 8.201C22.25 9.144 22.25 10.325 22.25 11.821V11.906C22.25 13.402 22.25 14.584 22.152 15.526C22.052 16.49 21.844 17.288 21.371 17.983C20.9889 18.5416 20.5015 19.0202 19.936 19.392C19.233 19.853 18.426 20.057 17.448 20.154C16.49 20.25 15.289 20.25 13.763 20.25H9.237C7.711 20.25 6.51 20.25 5.552 20.154C4.574 20.057 3.767 19.854 3.064 19.392C2.49844 19.0199 2.01099 18.5409 1.629 17.982C1.156 17.288 0.948 16.49 0.848 15.526C0.75 14.584 0.75 13.402 0.75 11.906V11.821C0.75 10.325 0.75 9.144 0.848 8.201C0.948 7.237 1.156 6.439 1.629 5.745C2.01099 5.18607 2.49844 4.70711 3.064 4.335C3.964 3.745 5.042 3.573 6.445 3.512L6.462 3.511H6.478C6.62516 3.50591 6.76632 3.45147 6.87879 3.35642C6.99125 3.26137 7.06846 3.13125 7.098 2.987ZM9.866 2.25C9.226 2.25 8.689 2.693 8.568 3.286C8.373 4.246 7.521 5.002 6.496 5.011C5.148 5.071 4.426 5.236 3.886 5.59C3.48545 5.85393 3.14004 6.19322 2.869 6.589C2.593 6.994 2.427 7.513 2.339 8.356C2.251 9.212 2.25 10.316 2.25 11.864C2.25 13.412 2.25 14.515 2.34 15.371C2.427 16.214 2.593 16.733 2.87 17.139C3.138 17.533 3.483 17.873 3.887 18.138C4.304 18.411 4.838 18.576 5.701 18.662C6.575 18.749 7.701 18.75 9.278 18.75H13.722C15.298 18.75 16.424 18.75 17.299 18.662C18.162 18.576 18.696 18.412 19.113 18.138C19.517 17.873 19.863 17.533 20.131 17.138C20.407 16.733 20.573 16.214 20.661 15.371C20.749 14.515 20.75 13.411 20.75 11.864C20.75 10.317 20.75 9.212 20.66 8.356C20.573 7.513 20.407 6.994 20.13 6.589C19.8591 6.19286 19.5136 5.85322 19.113 5.589C18.575 5.236 17.853 5.071 16.503 5.011C15.479 5.001 14.627 4.247 14.432 3.286C14.368 2.99027 14.2039 2.72569 13.9674 2.53694C13.7309 2.34819 13.4366 2.24684 13.134 2.25H9.866ZM11.5 9.25C10.9033 9.25 10.331 9.48705 9.90901 9.90901C9.48705 10.331 9.25 10.9033 9.25 11.5C9.25 12.0967 9.48705 12.669 9.90901 13.091C10.331 13.5129 10.9033 13.75 11.5 13.75C12.0967 13.75 12.669 13.5129 13.091 13.091C13.5129 12.669 13.75 12.0967 13.75 11.5C13.75 10.9033 13.5129 10.331 13.091 9.90901C12.669 9.48705 12.0967 9.25 11.5 9.25ZM7.75 11.5C7.75 10.5054 8.14509 9.55161 8.84835 8.84835C9.55161 8.14509 10.5054 7.75 11.5 7.75C12.4946 7.75 13.4484 8.14509 14.1517 8.84835C14.8549 9.55161 15.25 10.5054 15.25 11.5C15.25 12.4946 14.8549 13.4484 14.1517 14.1517C13.4484 14.8549 12.4946 15.25 11.5 15.25C10.5054 15.25 9.55161 14.8549 8.84835 14.1517C8.14509 13.4484 7.75 12.4946 7.75 11.5ZM16.75 8.5C16.75 8.30109 16.829 8.11032 16.9697 7.96967C17.1103 7.82902 17.3011 7.75 17.5 7.75H18.5C18.6989 7.75 18.8897 7.82902 19.0303 7.96967C19.171 8.11032 19.25 8.30109 19.25 8.5C19.25 8.69891 19.171 8.88968 19.0303 9.03033C18.8897 9.17098 18.6989 9.25 18.5 9.25H17.5C17.3011 9.25 17.1103 9.17098 16.9697 9.03033C16.829 8.88968 16.75 8.69891 16.75 8.5Z" fill="black" fill-opacity="0.9"/>
</svg>
