<svg width="50" height="49" viewBox="0 0 50 49" fill="none" xmlns="http://www.w3.org/2000/svg">
<path fill-rule="evenodd" clip-rule="evenodd" d="M24.9999 44.9167C15.3755 44.9167 10.5633 44.9167 7.57225 41.9257C4.58325 38.9387 4.58325 34.1245 4.58325 24.5C4.58325 14.8756 4.58325 10.0634 7.57225 7.07237C10.5653 4.08337 15.3755 4.08337 24.9999 4.08337C34.6243 4.08337 39.4365 4.08337 42.4255 7.07237C45.4166 10.0655 45.4166 14.8756 45.4166 24.5C45.4166 34.1245 45.4166 38.9367 42.4255 41.9257C39.4386 44.9167 34.6243 44.9167 24.9999 44.9167ZM33.2278 18.3138C33.5146 18.6009 33.6757 18.9901 33.6757 19.3959C33.6757 19.8017 33.5146 20.1908 33.2278 20.478L23.0195 30.6863C22.7324 30.973 22.3432 31.1341 21.9374 31.1341C21.5316 31.1341 21.1424 30.973 20.8553 30.6863L16.772 26.603C16.6216 26.4628 16.5009 26.2937 16.4172 26.1059C16.3335 25.9181 16.2885 25.7153 16.2849 25.5097C16.2812 25.3041 16.3191 25.0999 16.3961 24.9092C16.4731 24.7185 16.5877 24.5453 16.7331 24.3999C16.8785 24.2545 17.0517 24.1399 17.2424 24.0629C17.4331 23.9859 17.6373 23.948 17.8429 23.9517C18.0485 23.9553 18.2513 24.0003 18.4391 24.084C18.6269 24.1677 18.796 24.2883 18.9362 24.4388L21.9374 27.44L31.0637 18.3138C31.3508 18.027 31.74 17.866 32.1458 17.866C32.5515 17.866 32.9407 18.027 33.2278 18.3138Z" fill="#81C618"/>
</svg>
