<svg width="21" height="20" viewBox="0 0 21 20" fill="none" xmlns="http://www.w3.org/2000/svg">
<mask id="mask0_507_331" style="mask-type:luminance" maskUnits="userSpaceOnUse" x="0" y="0" width="21" height="20">
<path d="M20.5 10C20.5 15.523 16.023 20 10.5 20C4.977 20 0.5 15.523 0.5 10C0.5 4.477 4.977 0 10.5 0C16.023 0 20.5 4.477 20.5 10Z" fill="white"/>
<path fill-rule="evenodd" clip-rule="evenodd" d="M10.5 5.25C10.6989 5.25 10.8897 5.32902 11.0303 5.46967C11.171 5.61032 11.25 5.80109 11.25 6V9.69L13.53 11.97C13.6037 12.0387 13.6628 12.1215 13.7038 12.2135C13.7448 12.3055 13.7668 12.4048 13.7686 12.5055C13.7704 12.6062 13.7518 12.7062 13.7141 12.7996C13.6764 12.893 13.6203 12.9778 13.549 13.049C13.4778 13.1203 13.393 13.1764 13.2996 13.2141C13.2062 13.2518 13.1062 13.2704 13.0055 13.2686C12.9048 13.2668 12.8055 13.2448 12.7135 13.2038C12.6215 13.1628 12.5387 13.1037 12.47 13.03L9.97 10.53C9.82931 10.3895 9.75018 10.1988 9.75 10V6C9.75 5.80109 9.82902 5.61032 9.96967 5.46967C10.1103 5.32902 10.3011 5.25 10.5 5.25Z" fill="black"/>
</mask>
<g mask="url(#mask0_507_331)">
<path d="M-1.5 -2H22.5V22H-1.5V-2Z" fill="#717171"/>
</g>
</svg>
