<svg width="25" height="24" viewBox="0 0 25 24" fill="none" xmlns="http://www.w3.org/2000/svg">
<path fill-rule="evenodd" clip-rule="evenodd" d="M3.75 22C3.75 21.8011 3.82902 21.6103 3.96967 21.4697C4.11032 21.329 4.30109 21.25 4.5 21.25H20.5C20.6989 21.25 20.8897 21.329 21.0303 21.4697C21.171 21.6103 21.25 21.8011 21.25 22C21.25 22.1989 21.171 22.3897 21.0303 22.5303C20.8897 22.671 20.6989 22.75 20.5 22.75H4.5C4.30109 22.75 4.11032 22.671 3.96967 22.5303C3.82902 22.3897 3.75 22.1989 3.75 22Z" fill="#717171"/>
<path d="M12.02 14.929L17.937 9.01204C16.9411 8.59722 16.0368 7.98996 15.276 7.22504C14.5106 6.46403 13.903 5.5594 13.488 4.56304L7.57002 10.48C7.10802 10.942 6.87702 11.172 6.67902 11.427C6.44447 11.7271 6.2436 12.0521 6.08002 12.396C5.94102 12.687 5.83802 12.997 5.63102 13.616L4.54302 16.883C4.49309 17.0325 4.4858 17.1929 4.52195 17.3463C4.5581 17.4997 4.63628 17.6399 4.7477 17.7514C4.85913 17.8628 4.9994 17.941 5.15277 17.9771C5.30615 18.0133 5.46656 18.006 5.61602 17.956L8.88202 16.868C9.50202 16.661 9.81202 16.558 10.103 16.418C10.4484 16.254 10.7714 16.0547 11.072 15.82C11.327 15.621 11.557 15.39 12.019 14.929M19.579 7.37004C19.8711 7.07785 20.1029 6.73098 20.2609 6.34924C20.419 5.9675 20.5003 5.55836 20.5003 5.14519C20.5002 4.73201 20.4188 4.32289 20.2607 3.94119C20.1025 3.55948 19.8707 3.21266 19.5785 2.92054C19.2863 2.62841 18.9395 2.3967 18.5577 2.23863C18.176 2.08056 17.7668 1.99922 17.3537 1.99927C16.9405 1.99931 16.5314 2.08074 16.1497 2.2389C15.768 2.39706 15.4211 2.62885 15.129 2.92104L14.419 3.63104L14.45 3.72104C14.71 4.47004 15.201 5.45304 16.124 6.37604C16.8939 7.15045 17.8343 7.734 18.87 8.08004L19.579 7.37004Z" fill="#717171"/>
</svg>
