<svg width="24" height="25" viewBox="0 0 24 25" fill="none" xmlns="http://www.w3.org/2000/svg">
<path d="M19 8.5C17.3431 8.5 16 7.15685 16 5.5C16 3.84315 17.3431 2.5 19 2.5C20.6569 2.5 22 3.84315 22 5.5C22 7.15685 20.6569 8.5 19 8.5Z" stroke="black" stroke-width="1.5"/>
<path d="M14 2.7C13.3533 2.568 12.6867 2.50133 12 2.5C6.477 2.5 2 6.977 2 12.5C2 14.1 2.376 15.612 3.043 16.953C3.221 17.309 3.28 17.716 3.177 18.101L2.582 20.327C2.52307 20.5473 2.52312 20.7792 2.58216 20.9995C2.64119 21.2197 2.75712 21.4206 2.91831 21.5819C3.07951 21.7432 3.2803 21.8593 3.50053 21.9184C3.72075 21.9776 3.95267 21.9778 4.173 21.919L6.399 21.323C6.78538 21.2254 7.19414 21.2727 7.548 21.456C8.93095 22.1446 10.4551 22.502 12 22.5C17.523 22.5 22 18.023 22 12.5C21.9987 11.8133 21.932 11.1467 21.8 10.5" stroke="black" stroke-width="1.5" stroke-linecap="round"/>
</svg>
