<svg width="21" height="20" viewBox="0 0 21 20" fill="none" xmlns="http://www.w3.org/2000/svg">
<path fill-rule="evenodd" clip-rule="evenodd" d="M3.57897 3.06902C7.37397 -0.720979 13.544 -0.680979 17.362 3.13802C21.182 6.95802 21.222 13.131 17.426 16.926C13.63 20.721 7.45797 20.682 3.63797 16.862C2.56334 15.792 1.75141 14.4875 1.26593 13.0508C0.780447 11.6142 0.634646 10.0845 0.839973 8.58202C0.866893 8.38483 0.971042 8.20641 1.12951 8.08602C1.28798 7.96562 1.48778 7.9131 1.68497 7.94002C1.88216 7.96694 2.06058 8.07109 2.18098 8.22956C2.30138 8.38803 2.35389 8.58783 2.32697 8.78502C2.15266 10.0583 2.27605 11.3547 2.68746 12.5723C3.09887 13.7899 3.78707 14.8954 4.69797 15.802C7.94297 19.046 13.166 19.065 16.366 15.866C19.565 12.666 19.546 7.44302 16.302 4.19802C13.059 0.956021 7.83897 0.935022 4.63897 4.13002L5.38697 4.13302C5.48546 4.13348 5.5829 4.15334 5.67372 4.19145C5.76454 4.22957 5.84696 4.2852 5.91628 4.35517C5.9856 4.42514 6.04046 4.50807 6.07772 4.59924C6.11499 4.69041 6.13393 4.78803 6.13347 4.88652C6.13301 4.98501 6.11316 5.08245 6.07504 5.17327C6.03693 5.26409 5.9813 5.34651 5.91133 5.41583C5.84136 5.48515 5.75842 5.54 5.66725 5.57727C5.57608 5.61454 5.47846 5.63348 5.37997 5.63302L2.83397 5.62102C2.63627 5.61997 2.44699 5.5409 2.30728 5.40101C2.16758 5.26112 2.08876 5.07172 2.08797 4.87402L2.07497 2.33002C2.07445 2.23153 2.09333 2.1339 2.13053 2.0427C2.16774 1.95151 2.22254 1.86854 2.29181 1.79852C2.36109 1.7285 2.44347 1.67282 2.53427 1.63464C2.62506 1.59647 2.72248 1.57655 2.82097 1.57602C2.91946 1.5755 3.0171 1.59438 3.10829 1.63158C3.19949 1.66879 3.28246 1.72359 3.35248 1.79286C3.42249 1.86214 3.47818 1.94452 3.51635 2.03531C3.55453 2.12611 3.57445 2.22353 3.57497 2.32202L3.57897 3.06902ZM10.499 5.24902C10.6979 5.24902 10.8887 5.32804 11.0293 5.46869C11.17 5.60934 11.249 5.80011 11.249 5.99902V9.68902L13.53 11.969C13.6016 12.0382 13.6588 12.1209 13.6982 12.2124C13.7375 12.3039 13.7582 12.4023 13.7592 12.5019C13.7601 12.6014 13.7411 12.7002 13.7035 12.7924C13.6658 12.8846 13.6102 12.9684 13.5398 13.0388C13.4694 13.1093 13.3857 13.165 13.2935 13.2027C13.2014 13.2405 13.1026 13.2595 13.003 13.2587C12.9034 13.2579 12.805 13.2372 12.7135 13.198C12.622 13.1587 12.5392 13.1016 12.47 13.03L9.74997 10.31V6.00002C9.74997 5.80111 9.82899 5.61034 9.96964 5.46969C10.1103 5.32904 10.3011 5.25002 10.5 5.25002" fill="#717171"/>
</svg>
