<svg width="25" height="25" viewBox="0 0 25 25" fill="none" xmlns="http://www.w3.org/2000/svg">
<path d="M2.86404 13.458C2.48404 10.821 2.29404 9.502 2.83504 8.375C3.37604 7.248 4.52604 6.562 6.82704 5.192L8.21204 4.367C10.3 3.122 11.346 2.5 12.5 2.5C13.654 2.5 14.699 3.122 16.788 4.367L18.173 5.192C20.473 6.562 21.624 7.248 22.165 8.375C22.706 9.502 22.515 10.821 22.135 13.458L21.857 15.395C21.37 18.783 21.126 20.476 19.951 21.488C18.776 22.5 17.053 22.5 13.606 22.5H11.394C7.94704 22.5 6.22404 22.5 5.04904 21.488C3.87404 20.476 3.63004 18.783 3.14304 15.395L2.86404 13.458Z" stroke="#61605F" stroke-width="1.5"/>
<path d="M15.5 18.5H9.5" stroke="#61605F" stroke-width="1.5" stroke-linecap="round"/>
</svg>
