<svg width="8" height="10" viewBox="0 0 8 10" fill="none" xmlns="http://www.w3.org/2000/svg">
<path d="M4 0.416626C4.99456 0.416626 5.94839 0.811714 6.65165 1.51498C7.35491 2.21824 7.75 3.17206 7.75 4.16663C7.75 5.71913 6.56667 7.34579 4.25 9.08329C4.17788 9.13738 4.09015 9.16663 4 9.16663C3.90985 9.16663 3.82212 9.13738 3.75 9.08329C1.43333 7.34579 0.25 5.71913 0.25 4.16663C0.25 3.17206 0.645088 2.21824 1.34835 1.51498C2.05161 0.811714 3.00544 0.416626 4 0.416626ZM4 2.91663C3.66848 2.91663 3.35054 3.04832 3.11612 3.28274C2.8817 3.51716 2.75 3.83511 2.75 4.16663C2.75 4.49815 2.8817 4.81609 3.11612 5.05051C3.35054 5.28493 3.66848 5.41663 4 5.41663C4.33152 5.41663 4.64946 5.28493 4.88388 5.05051C5.1183 4.81609 5.25 4.49815 5.25 4.16663C5.25 3.83511 5.1183 3.51716 4.88388 3.28274C4.64946 3.04832 4.33152 2.91663 4 2.91663Z" fill="#1E1E1E"/>
</svg>
