<svg width="21" height="21" viewBox="0 0 21 21" fill="none" xmlns="http://www.w3.org/2000/svg">
<path fill-rule="evenodd" clip-rule="evenodd" d="M3.75 9.055V7C3.75 5.20979 4.46116 3.4929 5.72703 2.22703C6.9929 0.961159 8.70979 0.25 10.5 0.25C12.2902 0.25 14.0071 0.961159 15.273 2.22703C16.5388 3.4929 17.25 5.20979 17.25 7V9.055C18.365 9.138 19.09 9.348 19.621 9.879C20.5 10.757 20.5 12.172 20.5 15C20.5 17.828 20.5 19.243 19.621 20.121C18.743 21 17.328 21 14.5 21H6.5C3.672 21 2.257 21 1.379 20.121C0.5 19.243 0.5 17.828 0.5 15C0.5 12.172 0.5 10.757 1.379 9.879C1.909 9.348 2.635 9.138 3.75 9.055ZM5.25 7C5.25 5.60761 5.80312 4.27225 6.78769 3.28769C7.77225 2.30312 9.10761 1.75 10.5 1.75C11.8924 1.75 13.2277 2.30312 14.2123 3.28769C15.1969 4.27225 15.75 5.60761 15.75 7V9.004C15.3673 9.00067 14.9507 8.99933 14.5 9H6.5C6.04867 8.99933 5.632 9.00067 5.25 9.004V7ZM6.5 16C6.76522 16 7.01957 15.8946 7.20711 15.7071C7.39464 15.5196 7.5 15.2652 7.5 15C7.5 14.7348 7.39464 14.4804 7.20711 14.2929C7.01957 14.1054 6.76522 14 6.5 14C6.23478 14 5.98043 14.1054 5.79289 14.2929C5.60536 14.4804 5.5 14.7348 5.5 15C5.5 15.2652 5.60536 15.5196 5.79289 15.7071C5.98043 15.8946 6.23478 16 6.5 16ZM10.5 16C10.7652 16 11.0196 15.8946 11.2071 15.7071C11.3946 15.5196 11.5 15.2652 11.5 15C11.5 14.7348 11.3946 14.4804 11.2071 14.2929C11.0196 14.1054 10.7652 14 10.5 14C10.2348 14 9.98043 14.1054 9.79289 14.2929C9.60536 14.4804 9.5 14.7348 9.5 15C9.5 15.2652 9.60536 15.5196 9.79289 15.7071C9.98043 15.8946 10.2348 16 10.5 16ZM15.5 15C15.5 15.2652 15.3946 15.5196 15.2071 15.7071C15.0196 15.8946 14.7652 16 14.5 16C14.2348 16 13.9804 15.8946 13.7929 15.7071C13.6054 15.5196 13.5 15.2652 13.5 15C13.5 14.7348 13.6054 14.4804 13.7929 14.2929C13.9804 14.1054 14.2348 14 14.5 14C14.7652 14 15.0196 14.1054 15.2071 14.2929C15.3946 14.4804 15.5 14.7348 15.5 15Z" fill="#717171"/>
</svg>
