<svg width="19" height="20" viewBox="0 0 19 20" fill="none" xmlns="http://www.w3.org/2000/svg">
<path d="M5.852 18.242C6.28715 18.7922 6.84165 19.2364 7.47361 19.541C8.10558 19.8455 8.79849 20.0025 9.5 20C10.2015 20.0025 10.8944 19.8455 11.5264 19.541C12.1584 19.2364 12.7129 18.7922 13.148 18.242C10.727 18.5697 8.27297 18.5697 5.852 18.242ZM16.25 7V7.704C16.25 8.549 16.49 9.375 16.942 10.078L18.05 11.801C19.061 13.375 18.289 15.514 16.53 16.011C11.9337 17.3127 7.06629 17.3127 2.47 16.011C0.711001 15.514 -0.0609989 13.375 0.950001 11.801L2.058 10.078C2.51121 9.36919 2.75171 8.54531 2.751 7.704V7C2.751 3.134 5.773 0 9.5 0C13.227 0 16.25 3.134 16.25 7Z" fill="#717171"/>
</svg>
