<svg width="258" height="258" viewBox="0 0 258 258" fill="none" xmlns="http://www.w3.org/2000/svg">
<path d="M215.297 124.077C215.864 123.501 216.635 123.169 217.443 123.153C217.948 123.1 218.458 123.183 218.92 123.394C219.381 123.606 219.778 123.937 220.068 124.353C221.024 125.746 221.162 128.418 220.692 130.109C220.329 131.785 219.489 133.319 218.273 134.528C217.932 134.84 217.531 135.079 217.095 135.232C216.659 135.385 216.197 135.449 215.736 135.419L215.485 135.394C215.293 136.209 215.047 137.011 214.749 137.793C213.33 141.427 211.093 144.686 208.213 147.318V147.852C205.755 150.74 203.025 153.385 200.062 155.751L198.797 156.198C196.348 154.728 191.328 151.638 188.682 150.019V149.862C186.356 148.906 184.266 147.456 182.556 145.612C180.398 143.4 178.724 140.763 177.642 137.868C177.161 138.001 176.657 138.025 176.166 137.94C175.675 137.854 175.208 137.66 174.801 137.373C173.438 136.332 172.405 134.92 171.826 133.306C171.14 131.691 170.929 129.024 171.695 127.519C171.929 127.068 172.279 126.688 172.709 126.419C173.139 126.15 173.633 126 174.141 125.987C174.945 125.897 175.752 126.126 176.39 126.623C176.39 126.623 171.129 108.887 191.436 105.458C215.942 101.32 215.297 124.077 215.297 124.077Z" fill="white"/>
<path d="M210.211 100.182C214.192 103.235 217.929 108.156 218.756 115.722C219.013 118.229 218.864 120.76 218.315 123.218C218.027 123.164 217.735 123.142 217.443 123.153C216.634 123.17 215.864 123.501 215.296 124.077C213.627 126.319 208.21 117.391 206 115.197L188.165 115.482C185.486 117.074 178.465 124.668 177.198 127.742C176.953 127.153 176.521 126.661 175.968 126.344C175.415 126.026 174.772 125.901 174.14 125.986C173.82 126.016 173.504 126.086 173.201 126.195C172.339 123.819 171.852 121.323 171.761 118.797C171.648 115.296 172.355 111.816 173.825 108.636C175.294 105.456 177.487 102.663 180.227 100.479C183.986 97.5297 188.522 95.7367 193.282 95.319C198.042 94.9012 202.821 95.8767 207.037 98.1267L210.211 100.182Z" fill="#85807F"/>
<path d="M32.0122 138.915C31.5162 138.093 31.0747 137.307 30.7537 136.651C36.004 135.053 41.3712 132.692 44.2877 128.949C44.6447 130.45 45.4169 131.819 46.5159 132.901C46.8634 133.216 47.2697 133.46 47.7116 133.617C46.7699 134.728 45.8608 135.802 45.8608 135.802C42.1165 140.442 37.85 143.186 35.5732 144.103C34.277 142.451 33.0876 140.718 32.0122 138.915Z" fill="white"/>
<path d="M43.4166 128.148C40.382 132.144 35.0599 134.091 30.4386 135.506C30.2651 135.557 30.1054 135.646 29.9713 135.768C29.8371 135.889 29.7319 136.039 29.6636 136.206C29.5952 136.374 29.5653 136.554 29.5762 136.735C29.5871 136.915 29.6385 137.091 29.7265 137.249C31.0992 139.994 32.7781 142.574 34.7312 144.941C34.8769 145.094 35.0618 145.203 35.2656 145.256C35.4693 145.31 35.684 145.307 35.8859 145.246C40.1465 143.504 43.8273 140.167 46.6981 136.642C46.9124 136.415 47.0318 136.115 47.0318 135.803C47.0318 135.491 46.9124 135.191 46.6981 134.964C46.4744 134.743 46.1729 134.62 45.8587 134.62C45.5446 134.62 45.2431 134.743 45.0194 134.964C43.4175 136.958 41.5872 138.758 39.5661 140.325C38.7959 140.915 37.9929 141.461 37.1611 141.961C36.795 142.18 36.4229 142.39 36.0438 142.584C35.8776 142.669 35.7103 142.752 35.5406 142.831C35.502 142.849 35.0771 143.032 35.2551 142.959L36.4099 143.265C34.5991 141.043 33.0446 138.624 31.7761 136.053L31.064 137.797C36.3683 136.171 42.0032 133.9 45.4609 129.347C45.6178 129.075 45.6612 128.752 45.5816 128.448C45.5019 128.144 45.3057 127.884 45.0354 127.723C44.7619 127.572 44.4406 127.532 44.1382 127.611C43.8359 127.69 43.5756 127.883 43.4113 128.149L43.4166 128.148Z" fill="#211715"/>
<path d="M90.3539 125.52C91.1655 123.473 91.6873 121.322 91.9044 119.131C91.927 118.872 91.9454 118.608 91.9596 118.338C92.4029 109.878 88.6782 104.128 84.7452 100.6C80.965 97.156 76.1514 95.06 71.0551 94.6387C66.2104 94.0901 61.3171 95.1036 57.089 97.5315C54.095 99.2123 51.535 101.569 49.6128 104.414C47.6907 107.259 46.4595 110.514 46.0175 113.919C45.7088 116.376 45.7865 118.866 46.2477 121.3L46.1599 130.221C45.8632 133.781 43.403 137.088 43.4523 140.738C43.5976 141.67 44.1359 143.598 44.6349 144.249C45.6617 145.571 46.9477 146.671 48.4141 147.479C49.8805 148.287 51.4965 148.788 53.1631 148.95L54.7706 151.337L79.8064 151.812C80.9437 151.785 82.0786 151.695 83.2059 151.543C86.2838 151.24 89.967 149.843 91.0785 146.715C92.3204 143.223 90.3432 139.1 90.9165 135.44L90.3539 125.52Z" fill="#85807F"/>
<path d="M63.1446 219.993C65.1858 208.713 67.9332 193.184 69.7787 184.722C71.2966 177.801 72.7267 170.73 74.6587 163.854L74.3122 163.955C70.9235 164.904 67.357 165.028 63.9106 164.317C60.8028 163.598 57.8398 162.356 55.1486 160.644C52.8344 172.107 50.8376 183.134 48.0131 194.448C45.8116 201.141 40.9161 211.134 36.5725 219.993H63.1446Z" fill="white"/>
<path d="M79.8616 117.342C79.5334 116.8 79.2551 116.309 79.0356 115.901C79.0356 115.901 77.6304 113.29 75.7167 109.729L75.6746 109.782C72.0627 114.434 67.074 117.826 61.4202 119.475C59.2614 120.128 63.3505 109.519 60.6446 112.655C57.0427 116.195 53.1821 119.841 49.5927 122.784C49.3181 122.471 48.9815 122.218 48.6042 122.041C48.2269 121.865 47.8171 121.769 47.4007 121.758C46.9063 121.704 46.4063 121.782 45.9527 121.986C45.499 122.19 45.1083 122.512 44.8212 122.918C43.8754 124.277 43.7229 126.894 44.1726 128.555C44.5181 130.2 45.3319 131.709 46.5159 132.902C46.8728 133.236 47.2994 133.486 47.7648 133.635C48.2303 133.784 48.7231 133.828 49.2076 133.763C49.8705 136.719 51.1418 139.504 52.9406 141.94C54.7997 144.442 56.8261 146.26 59.2098 147.336C59.0982 147.527 58.9871 147.715 58.8763 147.899C58.7149 148.166 58.5594 148.418 58.4087 148.659C58.2253 148.951 58.0497 149.226 57.8942 149.46L57.8693 149.498C57.8046 149.595 57.7388 149.692 57.6705 149.788C57.6509 149.816 57.6302 149.844 57.6112 149.871C57.5293 149.986 57.4403 150.095 57.3447 150.199C56.5638 153.735 55.8417 157.212 55.1492 160.651C57.8425 162.358 60.8054 163.598 63.9124 164.317C67.1339 164.998 71.5197 164.962 74.6688 163.833C75.3286 161.485 76.0478 159.161 76.8501 156.873C76.8177 156.824 76.7816 156.778 76.7421 156.735C76.6952 156.679 76.6484 156.623 76.5991 156.567C76.5321 156.491 76.465 156.415 76.3956 156.338C76.265 156.194 76.1367 156.049 76.0105 155.905C75.9784 155.868 75.9446 155.83 75.9131 155.794C75.82 155.683 75.7351 155.573 75.6568 155.463C75.636 155.433 75.6093 155.403 75.5897 155.373C75.3013 154.983 75.0622 154.559 74.8777 154.11C74.7484 153.713 74.6716 153.302 74.6492 152.886C74.6445 152.827 74.6391 152.767 74.635 152.708C74.6273 152.599 74.6255 152.49 74.6195 152.382C74.5444 151.05 74.5791 149.714 74.7234 148.388C79.8521 146.909 84.417 140.44 85.2424 138.663C85.6372 137.943 85.9833 137.198 86.2785 136.432L86.5159 136.492C86.9597 136.583 87.4172 136.583 87.8611 136.492C88.305 136.402 88.726 136.223 89.0989 135.965C90.4413 134.955 91.4627 133.577 92.0397 131.999C92.7227 130.421 92.9464 127.809 92.2047 126.328C91.9787 125.885 91.6381 125.511 91.2184 125.244C90.7987 124.977 90.3151 124.828 89.8181 124.811C89.0305 124.719 88.238 124.938 87.6095 125.421C84.5583 124.292 81.5515 120.137 79.8616 117.342Z" fill="white"/>
<path d="M44.667 131.814C44.0587 134.046 42.9734 136.133 42.5112 138.406C42.2577 139.421 42.2173 140.478 42.3925 141.509C42.5795 142.403 42.8579 143.276 43.2232 144.113C43.9733 145.812 45.6894 147.195 47.2286 148.157C49.0298 149.265 51.0618 149.943 53.1673 150.139C53.4814 150.137 53.782 150.011 54.0041 149.789C54.2262 149.567 54.3519 149.267 54.3541 148.952C54.3473 148.64 54.22 148.342 53.9989 148.121C53.7778 147.9 53.4799 147.772 53.1673 147.766C51.4796 147.583 49.856 147.017 48.4208 146.111C47.1954 145.345 45.7808 144.243 45.2485 142.854C44.966 142.167 44.7633 141.45 44.6444 140.717C44.604 139.854 44.727 138.99 45.007 138.172C45.541 136.226 46.4228 134.395 46.9533 132.447C47.3556 130.971 45.0663 130.342 44.6646 131.816L44.667 131.814Z" fill="#211715"/>
<path d="M79.8064 153.001C83.8308 152.897 88.6414 152.34 91.2499 148.869C94.2347 144.898 91.4422 140.129 92.0605 135.755C92.1337 135.452 92.0885 135.132 91.9342 134.861C91.7798 134.589 91.5279 134.387 91.2297 134.295C90.9261 134.214 90.6025 134.255 90.3292 134.411C90.0559 134.566 89.855 134.823 89.77 135.126C89.4609 137.311 89.8293 139.416 90.1189 141.582C90.3646 143.434 90.5693 145.532 89.5338 147.192C87.619 150.262 83.0172 150.546 79.8022 150.629C78.2778 150.668 78.2719 153.042 79.8022 153.003L79.8064 153.001Z" fill="#211715"/>
<path d="M73.9959 162.811C67.7374 164.772 61.2125 162.926 55.7788 159.643C54.468 158.85 53.2735 160.902 54.5807 161.692C60.5342 165.288 67.7854 167.244 74.6278 165.099C76.0805 164.644 75.458 162.352 73.9959 162.811Z" fill="#211715"/>
<path d="M73.5348 148.389C73.3069 150.164 73.3165 151.962 73.5633 153.735C73.7228 154.547 74.0647 155.312 74.5631 155.972C74.9892 156.581 75.6372 157.187 76.017 157.716C76.1816 157.981 76.4418 158.174 76.7438 158.253C77.0458 158.332 77.3667 158.292 77.6405 158.142C77.9104 157.982 78.1064 157.721 78.1861 157.417C78.2658 157.114 78.2228 156.791 78.0665 156.518C77.2649 155.402 76.0775 154.556 75.8633 153.183C75.6735 151.59 75.6887 149.978 75.9084 148.389C75.9063 148.075 75.7807 147.774 75.5585 147.552C75.3364 147.33 75.0357 147.204 74.7216 147.202C74.409 147.209 74.111 147.336 73.8899 147.557C73.6688 147.778 73.5416 148.076 73.5348 148.389Z" fill="#211715"/>
<path d="M50.3386 121.841C49.7392 121.255 48.9872 120.849 48.1683 120.669C47.3494 120.489 46.4964 120.543 45.7066 120.824C45.1103 121.061 44.5754 121.429 44.1419 121.902C43.7083 122.374 43.3873 122.939 43.203 123.554C42.2358 126.249 42.809 129.521 44.245 131.949C45.2538 133.654 46.9064 135.094 48.9969 134.981C50.516 134.899 50.5261 132.525 48.9969 132.607C47.4677 132.689 46.5047 131.307 45.9285 130.055C45.4314 129 45.1557 127.854 45.1185 126.687C45.0985 126.003 45.1746 125.319 45.3446 124.656C45.4362 124.248 45.6065 123.861 45.846 123.518C45.9866 123.305 45.6644 123.696 45.8751 123.487C46.0982 123.263 45.9938 123.321 46.2483 123.171C46.4661 123.051 46.7051 122.975 46.9521 122.947C47.2615 122.906 47.5759 122.937 47.8718 123.036C48.1676 123.135 48.4371 123.3 48.6599 123.519C49.7416 124.6 51.4203 122.922 50.3386 121.84V121.841Z" fill="#211715"/>
<path d="M88.2088 126.445C88.464 126.238 88.7649 126.094 89.0865 126.026C89.4082 125.957 89.7415 125.966 90.059 126.052C90.3044 126.108 90.5366 126.212 90.7432 126.356C90.6316 126.275 90.8862 126.494 90.9165 126.522C90.9544 126.561 90.9912 126.601 91.0256 126.64C90.955 126.547 90.9432 126.532 90.9894 126.599C91.587 127.507 91.568 128.865 91.3882 129.953C91.1827 131.153 90.7217 132.295 90.0365 133.301C89.3742 134.33 88.197 135.62 86.8322 135.344C86.5287 135.268 86.2077 135.313 85.9359 135.467C85.6641 135.622 85.4623 135.875 85.3724 136.175C85.2918 136.479 85.3338 136.802 85.4892 137.075C85.6445 137.348 85.901 137.549 86.2032 137.635C89.633 138.328 91.9454 135.243 93.1268 132.454C93.7184 131.045 93.9573 129.513 93.8229 127.99C93.7948 126.711 93.2602 125.494 92.3365 124.608C91.5914 124.002 90.6697 123.653 89.7098 123.616C88.7499 123.578 87.8037 123.852 87.0131 124.398C86.7485 124.563 86.557 124.823 86.4778 125.125C86.3986 125.427 86.4377 125.748 86.5871 126.021C86.7474 126.292 87.0076 126.488 87.3115 126.567C87.6153 126.647 87.9383 126.604 88.2106 126.448L88.2088 126.445Z" fill="#211715"/>
<path d="M85.5896 134.787C84.7667 137.412 83.3962 139.832 81.5687 141.888C79.4361 144.384 76.6964 146.963 73.3236 147.478C73.021 147.564 72.7642 147.765 72.6087 148.038C72.4532 148.312 72.4116 148.635 72.4928 148.939C72.5828 149.238 72.7847 149.492 73.0566 149.647C73.3286 149.801 73.6496 149.845 73.9532 149.77C77.6915 149.197 80.8739 146.344 83.2451 143.569C85.3507 141.213 86.9296 138.435 87.8765 135.421C88.3037 133.951 86.0144 133.323 85.5878 134.789L85.5896 134.787Z" fill="#211715"/>
<path d="M47.7864 132.633C48.9465 139.864 53.9369 147.663 61.4819 149.325C62.9707 149.653 63.6062 147.366 62.1126 147.036C55.3248 145.541 51.11 138.452 50.0751 132.002C49.99 131.7 49.789 131.443 49.5158 131.287C49.2425 131.132 48.919 131.09 48.6154 131.172C48.3156 131.261 48.062 131.463 47.9072 131.735C47.7525 132.007 47.7086 132.328 47.7846 132.631L47.7864 132.633Z" fill="#211715"/>
<path d="M83.6681 98.0964C80.3957 95.7431 76.6112 94.2003 72.6261 93.5949C68.641 92.9896 64.5691 93.339 60.7454 94.6144C57.6119 95.6939 54.7368 97.4127 52.3024 99.6618C49.868 101.911 47.9274 104.641 46.6037 107.68C44.7665 112.153 44.2951 117.071 45.249 121.812C45.5291 123.311 47.8172 122.676 47.5383 121.181C46.2406 114.238 48.1911 107.031 53.2545 102.026C57.1221 98.3204 62.1741 96.0998 67.5192 95.7557C72.8644 95.4117 78.1593 96.9663 82.4701 100.145C82.7424 100.302 83.0655 100.346 83.3694 100.266C83.6734 100.186 83.9338 99.9901 84.0942 99.7199C84.2459 99.4465 84.2863 99.1251 84.2069 98.8227C84.1275 98.5203 83.9346 98.2601 83.6681 98.0964Z" fill="#211715"/>
<path d="M91.9021 125.003C93.4901 120.393 93.6909 115.419 92.4794 110.696C91.4634 106.969 89.5122 103.563 86.8108 100.8C85.7456 99.7009 84.0687 101.38 85.1321 102.479C87.5469 104.947 89.2886 107.994 90.1907 111.328C90.7163 113.345 90.9576 115.425 90.9075 117.509C90.8265 119.85 90.3901 122.165 89.6134 124.374C89.1345 125.829 91.4256 126.451 91.9021 125.005V125.003Z" fill="#211715"/>
<path d="M64.1681 139.677C65.3075 140.339 66.5898 140.718 67.9065 140.78C69.2207 140.94 70.5519 140.681 71.7101 140.04C71.9819 139.881 72.1795 139.621 72.2593 139.316C72.3392 139.011 72.2948 138.688 72.1359 138.416C71.977 138.144 71.7167 137.947 71.4122 137.867C71.1076 137.787 70.7839 137.831 70.5121 137.99C70.3839 138.073 70.2243 138.123 70.1026 138.21C69.8893 138.323 69.728 138.513 69.6529 138.742C69.5777 138.971 69.5946 139.221 69.7 139.437C69.8054 139.654 69.991 139.822 70.2175 139.904C70.4441 139.986 70.6938 139.977 70.9138 139.879C71.1338 139.78 71.3069 139.6 71.3964 139.376C71.4859 139.153 71.4848 138.903 71.3934 138.68C71.3019 138.457 71.1273 138.278 70.9065 138.181C70.6856 138.085 70.4359 138.078 70.21 138.162C70.1632 138.178 70.1169 138.196 70.07 138.212C69.9549 138.25 69.8368 138.283 69.7187 138.312C69.5816 138.345 69.4434 138.371 69.3033 138.394C69.0802 138.434 69.4814 138.381 69.3206 138.391C69.244 138.395 69.1681 138.406 69.0915 138.411C68.6963 138.438 68.2997 138.436 67.9047 138.406C67.8062 138.399 67.7077 138.39 67.608 138.38C67.5083 138.37 67.3582 138.349 67.538 138.375C67.36 138.349 67.1766 138.316 66.998 138.279C66.7161 138.218 66.4386 138.139 66.1673 138.041C66.1041 138.012 66.0391 137.987 65.9726 137.966C66.0409 137.981 66.2254 138.081 66.0516 137.998C65.959 137.953 65.8658 137.91 65.775 137.862C65.6356 137.789 65.5003 137.708 65.3662 137.625C65.0944 137.466 64.7706 137.421 64.4661 137.501C64.1616 137.581 63.9013 137.779 63.7424 138.05C63.5835 138.322 63.5391 138.646 63.619 138.95C63.6988 139.255 63.8963 139.515 64.1681 139.674V139.677Z" fill="#211715"/>
<path d="M67.8887 131.25C67.9771 131.705 68.0537 132.162 68.1154 132.621L68.0733 132.305C68.118 132.536 68.1352 132.772 68.1243 133.007L68.1664 132.691C68.1596 132.739 68.1474 132.785 68.1302 132.83L68.2489 132.546C68.2371 132.571 68.2234 132.595 68.208 132.617L68.3937 132.377C68.376 132.398 68.3562 132.418 68.3344 132.436L68.5717 132.25C68.5428 132.269 68.5122 132.285 68.4803 132.298L68.7634 132.18C68.6781 132.215 68.5892 132.242 68.4981 132.258L68.8132 132.215C68.7321 132.226 68.6499 132.226 68.5687 132.215L68.8844 132.258C68.7711 132.241 68.6637 132.205 68.5515 132.183C68.2427 132.106 67.9161 132.148 67.6371 132.301C67.5025 132.38 67.3847 132.484 67.2905 132.609C67.1962 132.733 67.1274 132.874 67.0879 133.025C67.0484 133.176 67.039 133.333 67.0602 133.488C67.0814 133.642 67.1329 133.791 67.2117 133.925C67.368 134.194 67.6238 134.39 67.9237 134.471C68.1375 134.521 68.3538 134.561 68.5717 134.589C68.8378 134.613 69.1058 134.577 69.3562 134.484C69.6172 134.405 69.856 134.266 70.0534 134.077C70.227 133.897 70.355 133.677 70.4267 133.437C70.4976 133.199 70.519 132.95 70.4896 132.704C70.4154 132.006 70.3115 131.31 70.1757 130.621C70.0921 130.323 69.8965 130.069 69.6297 129.912C69.358 129.753 69.0343 129.709 68.7299 129.789C68.4254 129.869 68.1651 130.066 68.0062 130.338C67.8582 130.618 67.8161 130.943 67.8875 131.252L67.8887 131.25Z" fill="#211715"/>
<path d="M58.4633 125.208C58.0764 126.18 58.1173 128.483 60.0459 128.818C62.6147 128.988 62.9505 126.231 62.1821 124.868C61.5483 123.752 59.4994 123.16 58.4633 125.208Z" fill="#211715"/>
<path d="M79.0249 126.688C79.2688 127.705 78.8985 129.978 76.9421 130.033C74.3757 129.833 74.438 127.058 75.3957 125.82C76.1796 124.805 78.2927 124.511 79.0249 126.688Z" fill="#211715"/>
<path d="M78.0107 116.501C79.0601 118.437 80.2838 120.275 81.6666 121.989C83.1839 123.875 84.9932 125.689 87.2943 126.565C87.5981 126.646 87.9216 126.605 88.1949 126.449C88.4682 126.294 88.6693 126.037 88.7547 125.734C88.8312 125.431 88.7875 125.11 88.6327 124.838C88.4779 124.566 88.2239 124.364 87.9239 124.275C87.795 124.224 87.7873 124.222 87.9008 124.271C87.8498 124.249 87.7987 124.226 87.7483 124.202C87.6296 124.142 87.5109 124.086 87.3923 124.024C87.1846 123.912 86.9822 123.79 86.7852 123.662C86.3769 123.4 85.9931 123.102 85.6388 122.772C84.7742 121.985 83.9778 121.126 83.2581 120.205C82.0541 118.665 80.9837 117.025 80.0585 115.303C79.3322 113.958 77.2827 115.155 78.009 116.501H78.0107Z" fill="#211715"/>
<path d="M60.7935 110.842C56.9638 114.631 53.0747 118.378 48.9204 121.811C48.6999 122.034 48.5763 122.336 48.5763 122.65C48.5763 122.964 48.6999 123.265 48.9204 123.489C49.1461 123.705 49.4467 123.826 49.7594 123.826C50.0721 123.826 50.3728 123.705 50.5985 123.489C54.7522 120.055 58.6419 116.309 62.4716 112.521C63.5593 111.445 61.8812 109.767 60.7935 110.842Z" fill="#211715"/>
<path d="M75.1412 108.556C72.4276 112.14 68.8918 115.019 64.8322 116.949C63.8417 117.408 62.8225 117.801 61.781 118.127C61.6314 118.175 61.4843 118.22 61.3312 118.265C61.0542 118.331 61.0297 118.349 61.2576 118.318C61.3969 118.322 61.533 118.361 61.6532 118.431C61.7734 118.502 61.8737 118.602 61.9447 118.722C62.0045 118.892 62.0134 118.912 61.9714 118.781C61.961 118.748 61.9554 118.714 61.9548 118.68C61.9477 118.505 61.9495 118.33 61.9602 118.155C62.0509 116.477 62.5536 114.835 62.7565 113.171C62.7546 112.856 62.629 112.556 62.4068 112.333C62.1847 112.111 61.8839 111.986 61.5697 111.984C61.2573 111.991 60.9597 112.119 60.7387 112.34C60.5177 112.561 60.3903 112.858 60.3829 113.171C60.2168 114.53 59.7842 116.207 59.6252 117.705C59.4934 118.939 59.6768 120.751 61.3353 120.686C62.2984 120.65 63.3885 120.107 64.2732 119.757C65.2544 119.371 66.2148 118.934 67.1506 118.448C68.9698 117.485 70.6806 116.329 72.2537 115.002C74.0859 113.439 75.7412 111.681 77.1901 109.757C77.3473 109.485 77.3907 109.162 77.3111 108.858C77.2314 108.554 77.0351 108.294 76.7647 108.134C76.4911 107.983 76.1699 107.942 75.8675 108.022C75.5652 108.101 75.3049 108.293 75.1406 108.559L75.1412 108.556Z" fill="#211715"/>
<path d="M68.1806 107.718C76.0745 108.186 83.9082 109.382 91.5816 111.292C91.8227 111.34 92.0457 111.454 92.2251 111.622C92.4045 111.789 92.5332 112.004 92.5963 112.242C93.1627 114.89 93.2467 117.618 92.8443 120.296C92.7924 120.473 92.7036 120.638 92.5838 120.778C92.464 120.919 92.3158 121.033 92.1491 121.112C91.9823 121.191 91.8006 121.235 91.6159 121.239C91.4312 121.244 91.2477 121.209 91.0772 121.138C83.4652 118.646 78.0464 117.853 66.8627 117.006C62.3078 116.66 51.9739 116.517 46.3207 116.743C45.9798 116.776 45.6389 116.678 45.368 116.469C45.097 116.259 44.9165 115.954 44.8633 115.615C44.6925 113.715 44.8844 111.8 45.4288 109.971C45.5779 109.472 45.7742 108.988 46.0151 108.526C46.1245 108.345 46.2777 108.195 46.4606 108.089C46.6434 107.983 46.85 107.925 47.0612 107.92C50.1825 107.709 61.8646 107.293 68.1806 107.718Z" fill="white"/>
<path d="M68.1806 108.905C72.4062 109.191 76.6222 109.608 80.8038 110.291C82.7531 110.609 84.6941 110.979 86.6268 111.388C87.5105 111.575 88.3925 111.769 89.2727 111.971C89.7692 112.085 90.2655 112.2 90.7615 112.317C91.3965 112.467 91.4267 112.396 91.5472 113.036C91.9479 115.232 92.014 117.477 91.743 119.694C91.7038 120.031 91.8552 120.056 91.4766 120.027C91.1136 119.946 90.7596 119.83 90.4198 119.679C89.6096 119.422 88.7956 119.179 87.9779 118.947C84.9845 118.11 81.9392 117.471 78.8617 117.035C71.8713 116.07 64.8265 115.551 57.7702 115.482C54.3505 115.428 50.9272 115.415 47.5081 115.513C47.1953 115.522 46.2435 115.726 46.0311 115.47C45.875 115.282 45.9949 114.351 45.9967 114.093C45.9951 113.546 46.028 113 46.0952 112.457C46.2074 111.526 46.4295 110.612 46.7568 109.733C46.8553 109.48 46.9497 109.18 47.139 109.099C47.3564 109.056 47.5789 109.043 47.8 109.061C54.5844 108.603 61.39 108.552 68.1806 108.905C69.7056 109.005 69.6991 106.631 68.1806 106.532C61.483 106.188 54.771 106.235 48.0789 106.673C47.4843 106.66 46.8907 106.726 46.313 106.867C45.1748 107.247 44.7144 108.35 44.3643 109.402C44.0242 110.47 43.801 111.573 43.6985 112.689C43.5381 113.793 43.5496 114.915 43.7323 116.015C44.2337 118.211 46.6186 117.905 48.3335 117.867C50.1926 117.824 52.0523 117.814 53.9113 117.82C61.6684 117.785 69.4201 118.237 77.1207 119.172C80.5118 119.601 83.8676 120.273 87.162 121.184C88.0102 121.422 88.8536 121.673 89.6922 121.937C90.6417 122.234 91.5442 122.593 92.5322 122.22C93.738 121.765 93.9884 120.743 94.1302 119.581C94.2795 118.332 94.3192 117.071 94.2489 115.815C94.1905 114.587 94.0362 113.367 93.7872 112.163C93.6684 111.623 93.3872 111.131 92.9812 110.755C92.5752 110.379 92.0639 110.136 91.5157 110.058C89.3623 109.548 87.2012 109.069 85.0282 108.646C80.6924 107.811 76.3162 107.202 71.9172 106.821C70.6711 106.71 69.425 106.616 68.1789 106.532C66.6532 106.425 66.6598 108.8 68.1806 108.905Z" fill="#211715"/>
<path d="M150.959 145.781C151.054 145.83 151.148 145.877 151.242 145.921C153.207 143.702 154.968 141.311 156.505 138.776C152.796 137.396 150.556 136.615 148.004 134.474L147.597 134.129C146.539 136.001 145.271 137.747 143.819 139.334L146.289 142.089C147.639 143.561 149.216 144.807 150.959 145.781Z" fill="white"/>
<path d="M228.67 147.781C224.773 145.567 221.241 142.765 218.199 139.473L215.304 136.094C215.367 135.865 215.428 135.63 215.485 135.394L215.736 135.418C216.197 135.448 216.659 135.385 217.095 135.232C217.531 135.079 217.932 134.839 218.273 134.528C218.838 134.011 219.314 133.405 219.682 132.733L220.508 133.672C224.557 138.264 229.198 139.461 234.627 140.779C233.4 143.476 231.933 146.058 230.243 148.493C229.701 148.297 229.175 148.059 228.67 147.781Z" fill="white"/>
<path d="M154.501 119.883C154.242 119.446 153.871 119.087 153.426 118.842C152.982 118.598 152.48 118.477 151.972 118.492C151.164 118.449 150.371 118.722 149.762 119.255C149.762 119.255 150.296 101.898 129.592 101.898C108.887 101.898 110.775 118.918 110.775 118.918C110.175 118.375 109.388 118.087 108.579 118.116C108.072 118.093 107.569 118.205 107.12 118.442C106.671 118.679 106.294 119.032 106.028 119.463C105.152 120.908 105.166 123.585 105.731 125.245C106.189 126.897 107.115 128.382 108.397 129.52C108.782 129.837 109.233 130.065 109.716 130.187C110.2 130.309 110.705 130.322 111.194 130.225C112.059 133.191 113.533 135.945 115.521 138.311C117.112 140.304 119.122 141.922 121.409 143.049C121.342 143.909 121.124 144.751 120.765 145.536C120.438 146.107 120.012 146.615 119.507 147.037C118.242 148.196 116.853 149.211 115.365 150.063C117.551 153.897 124.091 157.768 130.551 157.824C138.265 157.89 143.336 153.176 145.465 150.32C143.993 149.442 142.623 148.403 141.378 147.224C140.88 146.793 140.462 146.277 140.144 145.699C139.754 144.795 139.541 143.826 139.516 142.842C143.999 140.409 147.545 134.582 148.204 132.892C148.559 132.134 148.864 131.353 149.115 130.554L149.363 130.597C149.821 130.66 150.287 130.631 150.733 130.51C151.179 130.389 151.597 130.18 151.96 129.893C153.262 128.778 154.213 127.309 154.699 125.665C155.29 124.017 155.35 121.341 154.501 119.883Z" fill="white"/>
<path d="M15.7629 145.695C15.873 145.305 16.0899 144.952 16.3891 144.677C16.6883 144.403 17.0581 144.217 17.457 144.141C18.0053 143.972 18.5946 143.993 19.1291 144.202C19.6635 144.411 20.1115 144.794 20.4002 145.29C21.3888 147.029 21.4404 151.572 20.478 153.218C20.354 153.434 20.1838 153.621 19.9795 153.764C20.0074 154.402 20.027 154.84 20.027 154.84C20.0863 156.254 20.5201 158.763 19.8858 160.244C18.915 162.51 17.4855 163.883 15.6917 164.508C15.6679 164.89 15.6501 165.178 15.6501 165.178C15.6222 165.638 15.6104 166.372 15.6021 167.16C12.1011 167.576 8.57513 168.118 5.0575 168.756C4.7163 167.616 4.20183 165.304 4.32289 163.979C4.43385 162.766 3.54792 161.699 2.90646 160.664C1.96503 159.289 1.37555 157.704 1.18978 156.048C1.1815 154.301 1.36698 152.558 1.74282 150.851C2.37775 147.89 3.6749 144.599 4.92162 143.564C7.05783 141.583 9.12164 142.353 11.729 143.098C12.412 143.293 15.0692 144.323 15.6365 145.531L15.7629 145.695Z" fill="white"/>
<path d="M9.51263 138.595C8.99045 130.688 7.77933 112.599 7.7016 104.325C7.70182 103.95 7.84245 103.589 8.09575 103.313C8.34906 103.037 8.69664 102.865 9.06996 102.833C12.6468 102.453 16.2583 102.547 19.8103 103.114C23.4807 103.617 27.0819 104.536 30.5442 105.854C30.9186 106.002 31.2207 106.29 31.3868 106.657C31.553 107.023 31.57 107.44 31.4343 107.819C28.8791 114.843 22.0486 131.887 19.1724 139.996L9.51263 138.595Z" fill="#FFDA71"/>
<path d="M14.4633 165.176C14.363 166.876 14.455 168.582 14.3547 170.279C14.3566 170.594 14.4822 170.894 14.7044 171.117C14.9266 171.339 15.2273 171.464 15.5415 171.466C15.8541 171.459 16.1519 171.332 16.373 171.111C16.5941 170.89 16.7213 170.592 16.7283 170.279C16.8286 168.58 16.7366 166.873 16.8369 165.176C16.835 164.862 16.7094 164.561 16.4872 164.339C16.2651 164.117 15.9643 163.991 15.6501 163.99C15.3375 163.996 15.0397 164.124 14.8186 164.345C14.5975 164.566 14.4703 164.864 14.4633 165.176Z" fill="#211715"/>
<path d="M15.2656 165.864C16.384 165.583 17.4294 165.066 18.3317 164.348C19.2341 163.631 19.9725 162.728 20.4975 161.702C21.1036 160.601 21.4192 159.364 21.4143 158.108C21.4214 157.014 21.2677 155.93 21.2138 154.838C21.2072 154.526 21.0801 154.228 20.8589 154.006C20.6378 153.785 20.3397 153.658 20.027 153.652C19.7131 153.655 19.413 153.781 19.191 154.002C18.9691 154.224 18.8431 154.525 18.8402 154.838C18.8877 155.806 19.0182 156.769 19.0372 157.738C19.1128 158.646 18.9338 159.556 18.5203 160.367C18.1594 161.162 17.6217 161.864 16.9482 162.42C16.2748 162.976 15.4834 163.371 14.6342 163.575C13.1507 163.925 13.7774 166.214 15.2656 165.864Z" fill="#211715"/>
<path d="M8.07549 148.965C9.06705 148.99 10.058 149 11.0472 149.078C12.1248 149.214 13.2123 149.256 14.2972 149.202C16.1575 149.024 17.3941 147.605 16.9437 145.698C16.5877 144.182 15.1552 143.287 13.8349 142.665C12.443 142.015 10.9726 141.548 9.46047 141.276C8.59564 141.078 7.69727 141.076 6.83168 141.271C5.96609 141.466 5.15537 141.853 4.45937 142.404C3.12008 143.477 2.39258 145.057 1.77486 146.617C1.05304 148.471 0.54981 150.402 0.275365 152.373C0.0107122 154.209 -0.199348 156.082 0.318089 157.896C0.681984 159.083 1.20815 160.215 1.88167 161.259C2.34808 162.009 3.09635 162.832 3.1456 163.751C3.15849 164.724 3.22903 165.695 3.35685 166.659C3.50321 167.528 3.70518 168.386 3.96151 169.229C4.40833 170.685 6.70001 170.064 6.25022 168.599C5.8318 167.331 5.5787 166.015 5.49721 164.682C5.54384 163.97 5.48384 163.255 5.31919 162.561C5.01258 161.778 4.60953 161.036 4.11935 160.352C3.2168 158.953 2.39852 157.399 2.36529 155.698C2.36809 154.232 2.53126 152.771 2.85187 151.34C3.17131 149.689 3.67963 148.079 4.3668 146.544C4.90441 145.385 5.58325 144.185 6.83887 143.686C8.09448 143.188 9.51862 143.692 10.7374 144.042C11.7458 144.306 12.7139 144.706 13.6154 145.229C14.1566 145.558 15.3956 146.706 14.0978 146.842C13.0793 146.887 12.0589 146.839 11.049 146.7C10.0598 146.622 9.06883 146.613 8.07727 146.587C6.54929 146.548 6.54988 148.921 8.07727 148.961L8.07549 148.965Z" fill="#211715"/>
<path d="M13.3555 149.413C13.4207 149.43 13.4842 149.451 13.5477 149.472C13.4154 149.413 13.4101 149.413 13.5299 149.467C13.6367 149.526 13.7406 149.59 13.8432 149.658C13.613 149.505 13.8219 149.653 13.8693 149.701C13.9168 149.75 13.9477 149.783 13.9845 149.827C13.8866 149.696 13.8747 149.682 13.9483 149.788C13.9768 149.839 14.1209 150.014 14.1049 150.072L14.0456 149.936C14.0634 149.985 14.0788 150.035 14.0925 150.086C14.1797 150.41 14.115 149.951 14.1115 150.145C14.102 150.22 14.102 150.295 14.1115 150.37C14.1423 150.177 14.1459 150.145 14.1221 150.272C14.1121 150.32 14.0996 150.367 14.0848 150.414C14.0618 150.467 14.042 150.522 14.0254 150.577C14.0812 150.267 14.1488 150.319 14.0848 150.433C14.0569 150.481 14.0337 150.532 14.0046 150.58C13.9676 150.628 13.9336 150.679 13.9026 150.732C13.9358 150.654 14.112 150.503 13.9619 150.646C13.94 150.666 13.8041 150.773 13.8035 150.796C13.969 150.672 14.0023 150.646 13.9026 150.718C13.8771 150.736 13.851 150.754 13.8243 150.77C13.759 150.812 13.686 150.843 13.6207 150.884C13.47 150.983 13.8711 150.802 13.5566 150.907C13.357 150.972 13.1521 151.02 12.9443 151.05C13.2409 151.005 12.7745 151.056 12.7217 151.058C12.6031 151.063 12.4873 151.064 12.3698 151.066C12.1052 151.066 11.8401 151.066 11.5747 151.066C10.4746 151.055 9.37441 151.006 8.27486 150.969C7.96087 150.971 7.66045 151.097 7.43842 151.319C7.21639 151.541 7.09056 151.842 7.08807 152.156C7.0943 152.469 7.22133 152.767 7.44256 152.988C7.66379 153.209 7.96205 153.336 8.27486 153.343C9.28956 153.378 10.3037 153.421 11.319 153.436C12.3082 153.524 13.3052 153.435 14.2628 153.171C15.0106 152.942 15.6455 152.441 16.0426 151.767C16.4396 151.093 16.5702 150.295 16.4085 149.529C16.2539 148.951 15.9495 148.424 15.5259 148.002C15.1024 147.579 14.5747 147.276 13.9963 147.123C13.6928 147.039 13.3685 147.079 13.0947 147.235C12.8209 147.39 12.62 147.648 12.5363 147.951C12.4526 148.255 12.4928 148.579 12.6482 148.853C12.8037 149.127 13.0615 149.328 13.365 149.411L13.3555 149.413Z" fill="#211715"/>
<path d="M12.1171 153.39C12.2037 153.431 12.5562 153.564 12.5764 153.66C12.5609 153.587 12.425 153.533 12.5764 153.674C12.6422 153.733 12.6986 153.805 12.7639 153.865C12.8647 153.958 12.6529 153.687 12.7674 153.869C12.8143 153.944 12.8576 154.018 12.9009 154.094C13.0143 154.295 12.8659 153.886 12.911 154.129C12.9187 154.171 13.0012 154.401 12.9437 154.221C12.8891 154.051 12.9365 154.269 12.9437 154.32C12.9698 154.557 13.0089 154.135 12.9437 154.357C12.9335 154.401 12.921 154.445 12.9063 154.488C12.8772 154.57 12.8897 154.547 12.9419 154.414C12.9359 154.489 12.8428 154.589 12.8078 154.651C12.7039 154.837 12.8932 154.578 12.7977 154.666C12.7419 154.717 12.6938 154.778 12.6381 154.831C12.593 154.873 12.5467 154.913 12.4992 154.95L12.593 154.876C12.5686 154.924 12.3811 155.013 12.3354 155.039C12.2619 155.082 12.1865 155.121 12.1099 155.158C12.0643 155.181 12.0186 155.202 11.9717 155.223C12.0832 155.177 12.0987 155.17 12.0192 155.201C11.8411 155.261 11.6631 155.33 11.4851 155.387C11.093 155.491 10.7127 155.635 10.3499 155.816C9.87702 156.079 9.51669 156.506 9.33703 157.016C9.19283 157.549 9.19283 158.11 9.33703 158.642C9.42162 158.945 9.62248 159.203 9.89588 159.358C10.1693 159.514 10.4931 159.555 10.7968 159.473C11.096 159.383 11.3491 159.181 11.5037 158.909C11.6583 158.638 11.7027 158.317 11.6275 158.014C11.6091 157.914 11.5973 157.717 11.6073 157.924C11.5952 157.823 11.594 157.722 11.6038 157.621C11.5907 157.693 11.4952 157.926 11.5949 157.77C11.4936 157.897 11.4883 157.916 11.5789 157.825L11.4756 157.911C11.5243 157.88 11.5747 157.853 11.6263 157.828L11.5041 157.876C11.5862 157.843 11.67 157.814 11.7551 157.789C11.9408 157.729 12.1283 157.676 12.3135 157.611C13.2759 157.341 14.1289 156.776 14.7511 155.994C15.0318 155.617 15.2149 155.177 15.284 154.713C15.353 154.248 15.3059 153.774 15.1469 153.332C14.8109 152.46 14.1577 151.747 13.3181 151.336C13.0463 151.177 12.7225 151.133 12.418 151.213C12.1135 151.292 11.8531 151.49 11.6943 151.762C11.5354 152.034 11.491 152.357 11.5709 152.662C11.6507 152.966 11.8482 153.227 12.12 153.386L12.1171 153.39Z" fill="#211715"/>
<path d="M18.7055 155.323C19.2966 155.33 19.8785 155.176 20.3888 154.877C20.899 154.579 21.3184 154.147 21.6018 153.628C21.9861 152.773 22.2161 151.856 22.2812 150.921C22.5413 149.027 22.3437 147.099 21.7051 145.298C21.5117 144.758 21.1962 144.271 20.7832 143.874C20.3702 143.476 19.8709 143.18 19.3244 143.007C18.3651 142.754 17.348 142.835 16.4411 143.238C14.2948 144.207 14.0082 147.247 14.1826 149.304C14.398 151.883 15.5795 155.342 18.7055 155.323C20.2323 155.313 20.2352 152.939 18.7055 152.949C18.4162 152.941 18.1355 152.849 17.8969 152.686C17.6583 152.522 17.472 152.293 17.3603 152.026C16.9555 151.271 16.6928 150.449 16.5853 149.6C16.4925 148.837 16.4973 148.066 16.5995 147.304C16.66 146.91 16.7492 146.52 16.8666 146.139C16.9248 145.863 17.0807 145.617 17.3057 145.446C17.5025 145.352 17.712 145.288 17.9275 145.255C18.1311 145.209 17.9115 145.259 17.8741 145.262C17.9536 145.256 18.0332 145.247 18.1115 145.244C18.266 145.236 18.421 145.24 18.5749 145.256C18.2664 145.22 18.8716 145.353 18.766 145.316C18.85 145.372 18.9385 145.421 19.0306 145.463C19.1272 145.55 19.2144 145.647 19.2906 145.752C19.3416 145.827 19.5522 146.266 19.4514 146.02C19.9243 147.297 20.1022 148.665 19.9718 150.021C19.9746 150.739 19.8671 151.452 19.6531 152.137C19.6252 152.228 19.4347 152.651 19.5694 152.393C19.5427 152.444 19.522 152.498 19.4923 152.548C19.4816 152.566 19.3244 152.806 19.4134 152.686C19.3183 152.775 19.2063 152.844 19.0841 152.89C18.9618 152.936 18.8317 152.957 18.7013 152.951C18.3888 152.959 18.091 153.086 17.87 153.307C17.6489 153.528 17.5216 153.826 17.5145 154.138C17.5178 154.452 17.6445 154.753 17.8674 154.974C18.0902 155.196 18.3912 155.321 18.7055 155.323Z" fill="#211715"/>
<path d="M10.6995 138.595C10.3304 133.002 9.96366 127.408 9.63967 121.811C9.45513 118.626 9.28364 115.441 9.13944 112.254C9.02432 109.689 8.84275 107.098 8.89081 104.529C8.90208 103.91 9.33763 103.989 9.88652 103.941C10.9196 103.851 11.9563 103.798 12.9935 103.789C14.9899 103.784 16.9843 103.916 18.9624 104.186C20.8388 104.433 22.7007 104.78 24.5403 105.225C26.3767 105.609 28.1742 106.16 29.9105 106.87C30.4446 107.108 30.3478 107.349 30.1639 107.851C29.976 108.365 29.7859 108.878 29.5936 109.388C29.1545 110.561 28.7099 111.733 28.2597 112.902C27.1845 115.706 26.1011 118.508 25.0097 121.306C22.6397 127.413 20.2222 133.508 18.0296 139.681C17.5169 141.123 19.8098 141.743 20.3183 140.312C22.381 134.504 24.6501 128.768 26.8771 123.023C28.039 120.029 29.1982 117.033 30.355 114.037C30.8332 112.792 31.3079 111.546 31.7791 110.298C32.2164 109.134 32.9659 107.79 32.6045 106.527C32.0556 104.628 29.5343 104.167 27.8918 103.67C25.9473 103.088 23.9705 102.62 21.9715 102.267C17.9034 101.486 13.748 101.259 9.6189 101.593C8.74753 101.579 7.90315 101.896 7.25542 102.479C6.97466 102.807 6.76474 103.19 6.63884 103.603C6.51294 104.016 6.47376 104.451 6.52377 104.88C6.54217 106.158 6.58311 107.437 6.62524 108.715C6.7368 111.876 6.89405 115.035 7.06554 118.193C7.43403 124.997 7.87908 131.797 8.32828 138.596C8.42856 140.113 10.8033 140.124 10.7018 138.596L10.6995 138.595Z" fill="#211715"/>
<path d="M218.858 219.993H179.942C178.481 212.133 176.548 201.67 174.76 192.794C169.372 196.73 165.649 199.754 160.058 204.333C160.058 204.333 159.32 204.919 158.403 205.65C158.317 203.617 158.247 201.726 158.212 200.198C158.028 192.761 157.408 183.77 157.173 176.141C157.529 175.767 157.773 175.511 157.773 175.511C160.399 172.782 165.965 164.492 169.498 161.77C173.826 158.493 178.593 155.842 183.661 153.896C184.998 152.947 186.878 151.241 188.415 149.855C190.977 151.421 196.265 154.679 198.8 156.199C198.845 156.181 199.951 155.79 200.054 155.753C203.201 153.243 206.082 150.419 208.655 147.323C208.69 147.355 208.731 147.388 208.731 147.388C208.731 147.388 211.219 149.373 212.466 150.269C217.591 152.999 227.027 156.646 229.887 157.593L252.635 175.513C252.971 175.53 253.274 175.545 253.738 175.552C253.966 175.554 254.189 175.621 254.38 175.746C254.571 175.871 254.723 176.047 254.816 176.255C255.407 177.607 255.854 179.018 256.152 180.463C256.765 183.639 256.958 186.882 256.725 190.108C256.393 194.417 256.013 197.977 253.418 201.393C250.898 204.703 246.891 206.717 243.131 204.67C241.658 203.933 240.359 202.892 239.317 201.617C236.674 198.252 234.175 194.778 231.821 191.195C233.589 199.749 235.964 210.365 238.111 219.996L218.858 219.993Z" fill="#7ABEE6"/>
<path d="M55.1937 152.697C55.7301 152.54 56.2474 152.324 56.7365 152.053C57.2498 151.808 57.7212 151.483 58.1334 151.092C58.5691 150.603 58.9535 150.07 59.2804 149.502C59.4588 149.222 59.6343 148.939 59.8067 148.655C60.1154 148.274 60.3188 147.818 60.3966 147.334C60.3966 147.019 60.2715 146.718 60.049 146.495C59.8264 146.273 59.5245 146.147 59.2098 146.147C58.895 146.147 58.5932 146.273 58.3706 146.495C58.148 146.718 58.023 147.019 58.023 147.334V147.34L58.185 146.741C57.8747 147.267 57.5584 147.789 57.2308 148.304C57.0868 148.532 56.9399 148.758 56.7899 148.983C56.7175 149.091 56.6422 149.196 56.5662 149.301C56.4998 149.394 56.7484 149.082 56.5745 149.283C56.5283 149.336 56.4802 149.389 56.4303 149.438C56.3805 149.488 56.3431 149.518 56.3004 149.557C56.1135 149.735 56.5377 149.386 56.3835 149.498C56.301 149.557 56.2185 149.613 56.133 149.666C55.9402 149.788 55.7408 149.899 55.5397 150.004C55.3385 150.109 55.116 150.211 54.9 150.307C55.2863 150.135 54.9213 150.295 54.8258 150.328C54.7392 150.359 54.6519 150.388 54.5635 150.409C54.26 150.493 54.0022 150.694 53.8467 150.967C53.6913 151.241 53.6509 151.565 53.7346 151.869C53.8182 152.172 54.019 152.43 54.2928 152.586C54.5665 152.741 54.8908 152.782 55.1943 152.698L55.1937 152.697Z" fill="#211715"/>
<path d="M143.445 92.7649C139.407 90.2093 134.713 88.8831 129.935 88.9478C125.157 89.0125 120.5 90.4653 116.533 93.1292C113.639 95.1041 111.247 97.7276 109.546 100.791C107.845 103.854 106.883 107.271 106.737 110.772C106.641 113.298 106.941 115.823 107.627 118.256C107.936 118.169 108.255 118.122 108.576 118.116C109.385 118.087 110.172 118.375 110.772 118.918L113.91 116.407C116.27 113.9 120.429 110.126 123.338 108.678C123.679 108.508 124.114 108.746 124.247 109.297C124.356 109.728 124.382 110.175 124.324 110.616C124.303 110.743 124.318 110.874 124.366 110.993C124.414 111.113 124.495 111.217 124.598 111.293C124.702 111.37 124.824 111.417 124.953 111.429C125.081 111.441 125.21 111.418 125.326 111.361C127.403 110.265 131.106 108.055 133.728 107.01L137.597 107.505C138.895 108.038 140.094 108.784 141.146 109.712C143.48 111.695 145.711 114.406 146.688 116.852L149.76 119.255C150.368 118.722 151.161 118.449 151.969 118.492C152.27 118.502 152.569 118.549 152.859 118.63L152.919 118.306C153.594 115.993 153.902 113.588 153.829 111.179C153.564 103.572 150.2 98.3879 146.456 95.0489L143.445 92.7649Z" fill="#85807F"/>
<path d="M159.078 219.993L158.971 218.373C158.77 213.324 158.324 204.992 158.212 200.216C158.026 192.722 157.398 183.648 157.169 175.983C157.531 175.703 157.773 175.512 157.773 175.512C160.399 172.782 165.965 164.492 169.498 161.77C170.933 160.667 172.425 159.64 173.967 158.694C171.338 157.124 168.905 155.671 168.905 155.671C162.878 152.497 156.368 150.343 149.637 149.297C149.637 149.297 138.938 147.859 130.631 147.957C122.507 148.054 110.788 149.504 110.788 149.504C105.809 150.217 95.7193 153.595 91.1704 156.76L86.0619 159.545C87.3288 160.31 88.5406 161.162 89.6887 162.096C91.8516 163.869 93.8424 166.42 95.8184 168.695C98.1629 171.391 99.4797 173.342 102.026 175.875C101.866 183.772 101.215 192.119 101.017 200.214C100.904 204.991 100.459 213.322 100.258 218.372L100.216 219.992L159.078 219.993Z" fill="white"/>
<path d="M63.1445 219.993C65.1858 208.713 67.9332 193.184 69.7786 184.722C71.9386 174.872 73.9205 164.72 77.4251 155.259C81.6975 157.113 86.0827 159.138 89.6887 162.094C91.8516 163.867 93.8424 166.418 95.8184 168.694C98.1635 171.39 99.4803 173.342 102.03 175.874C101.864 183.825 101.205 192.227 101.011 200.369C95.1153 195.777 89.2828 190.965 83.2795 186.934C81.3806 197.229 79.1524 210.363 77.7479 219.059L77.6055 219.99L63.1445 219.993Z" fill="#F8B8B4"/>
<path d="M64.2886 220.309C65.746 212.253 67.1767 204.191 68.7011 196.147C70.2115 188.178 71.886 180.24 73.7247 172.334C74.9199 167.009 76.4133 161.754 78.1977 156.597C78.7104 155.155 76.4175 154.534 75.909 155.965C72.6691 165.074 70.7845 174.576 68.723 183.999C67.1161 191.346 65.7899 198.756 64.4435 206.154C63.6234 210.661 62.8089 215.169 61.9999 219.678C61.9251 219.981 61.9695 220.302 62.1241 220.573C62.2787 220.845 62.5316 221.047 62.8307 221.137C63.1343 221.218 63.4576 221.176 63.7307 221.021C64.0038 220.866 64.2049 220.609 64.2904 220.307L64.2886 220.309Z" fill="#211715"/>
<path d="M78.7495 220.309C80.0135 212.043 81.4697 203.8 82.9252 195.565C83.3711 193.044 83.8246 190.523 84.2859 188.004C84.56 186.511 82.2731 185.868 81.9972 187.373C80.3487 196.355 78.7891 205.353 77.3183 214.367C77.0269 216.136 76.732 217.905 76.4608 219.677C76.3872 219.98 76.4322 220.301 76.5866 220.572C76.741 220.843 76.9932 221.045 77.2916 221.137C77.5953 221.218 77.9188 221.177 78.192 221.021C78.4652 220.866 78.6662 220.609 78.7513 220.306L78.7495 220.309Z" fill="#211715"/>
<path d="M36.5725 219.993C40.9161 211.134 45.8116 201.141 48.0131 194.448C51.8214 179.198 54.1285 164.455 57.7298 148.477C52.5835 151.47 46.8919 153.408 40.9879 154.177C37.9397 155.038 35.1426 156.617 32.8311 158.783L25.1372 166.437L21.117 166.609C15.0321 167.118 8.98014 167.964 2.9889 169.143C2.53109 169.23 2.1165 169.47 1.81287 169.824C1.50924 170.178 1.33454 170.624 1.31732 171.09C1.00816 180.009 3.00373 192.645 6.05673 197.682C7.54021 200.128 9.86749 202.335 12.2755 202.246C15.8685 202.113 17.8255 200.69 20.7248 198.563C23.8923 196.24 27.3399 192.791 31.3625 188.507C30.5519 191.931 29.8434 194.655 29.3634 196.085C27.4052 201.907 16.5461 215.876 13.4178 219.994L36.5725 219.993Z" fill="#F8B8B4"/>
<path d="M251.242 159.131C250.932 158.697 250.562 158.308 250.144 157.977C247.889 156.591 245.931 155.373 243.772 154.318C243.255 154.077 242.725 153.865 242.186 153.682C241.301 153.379 240.333 153.432 239.487 153.83C238.778 154.168 237.84 155.441 238.096 156.322L236.174 156.564C235.627 156.477 235.132 156.182 234.591 156.062C234.014 155.974 233.424 156.035 232.877 156.242C232.331 156.449 231.847 156.793 231.473 157.241C230.736 158.148 230.194 159.197 229.882 160.322C229.606 161.201 229.591 162.141 229.838 163.029C229.919 163.311 230.067 163.57 230.271 163.781C230.475 163.992 230.728 164.15 231.007 164.241C231.403 164.376 231.823 164.423 232.239 164.379C232.655 164.335 233.057 164.202 233.416 163.987L233.264 165.352C232.985 165.641 232.752 165.972 232.576 166.334C232.388 166.802 232.337 167.314 232.43 167.811C232.522 168.307 232.754 168.766 233.099 169.135C233.903 169.963 234.748 170.749 235.632 171.491L236.657 170.385C237.637 171.196 238.419 172.219 238.516 173.246C239.169 178.876 240.554 181.176 242.775 181.791C244.534 182.253 246.371 182.329 248.162 182.015C248.646 181.896 250.832 181.268 251.151 180.888C251.777 180.134 252.47 179.578 252.72 178.579C252.895 177.745 252.892 176.883 252.713 176.05C252.535 175.046 252.23 172.494 252.11 170.795C251.943 168.539 252.009 166.273 252.307 164.03C252.6 162.637 252.408 161.186 251.762 159.917C251.61 159.642 251.436 159.379 251.242 159.131Z" fill="white"/>
<path d="M21.117 165.422C17.7465 165.69 14.3879 166.086 11.0424 166.575C9.30654 166.829 7.57483 167.109 5.84727 167.414C5.07704 167.549 4.30742 167.689 3.53838 167.833C2.81294 167.908 2.11383 168.146 1.49355 168.529C0.265235 169.415 0.128754 170.717 0.105612 172.118C0.0872171 173.348 0.109173 174.578 0.164951 175.806C0.28363 178.515 0.550656 181.215 0.931613 183.899C1.57782 188.458 2.46078 193.275 4.55842 197.417C5.6918 199.656 7.50461 201.895 9.85088 202.918C12.2583 203.968 15.1914 203.265 17.4528 202.132C19.9578 200.762 22.2807 199.082 24.367 197.133C26.9643 194.852 29.3669 192.354 31.7381 189.841C32.786 188.731 31.1109 187.049 30.0594 188.163C26.4955 191.938 22.8622 195.664 18.5915 198.648C16.7057 199.965 14.7446 200.962 12.4025 201.053C10.0289 201.146 8.15496 198.876 7.05007 197.025C6.20664 195.519 5.5527 193.914 5.10315 192.248C4.46923 190.076 3.96456 187.869 3.59179 185.637C2.75388 180.938 2.38693 176.168 2.49639 171.396C2.4664 171.184 2.50555 170.967 2.60805 170.779C2.71054 170.591 2.87093 170.441 3.06545 170.351C3.84816 170.111 4.65414 169.954 5.46987 169.884C7.19782 169.571 8.92974 169.281 10.6656 169.016C14.1346 168.488 17.619 168.081 21.1188 167.796C22.6313 167.678 22.6444 165.304 21.1188 165.423L21.117 165.422Z" fill="#211715"/>
<path d="M62.6194 216.122C58.9528 216.503 55.1468 216.098 51.5076 215.637C47.7407 215.162 43.8089 214.535 40.2669 213.111C39.9633 213.03 39.6398 213.071 39.3665 213.227C39.0933 213.382 38.8923 213.639 38.8072 213.942C38.7313 214.245 38.7753 214.566 38.93 214.838C39.0847 215.11 39.3383 215.312 39.638 215.402C43.317 216.881 47.3906 217.478 51.3017 217.985C55.008 218.464 58.8858 218.886 62.6212 218.497C62.9331 218.488 63.2299 218.361 63.4506 218.14C63.6713 217.919 63.7991 217.622 63.808 217.31C63.8059 216.996 63.6803 216.696 63.4581 216.474C63.236 216.251 62.9353 216.126 62.6212 216.124L62.6194 216.122Z" fill="#211715"/>
<path d="M25.9763 167.276L31.591 161.691C33.2216 160.068 34.7632 158.487 36.7499 157.296C37.6786 156.729 38.6548 156.245 39.6676 155.848C40.7575 155.474 41.8823 155.211 43.025 155.063C45.4031 154.658 47.7446 154.063 50.027 153.282C52.6178 152.395 55.1263 151.283 57.5239 149.959C58.862 149.222 57.6658 147.171 56.3259 147.91C52.0661 150.258 47.4477 151.886 42.6571 152.729C41.5084 152.875 40.3751 153.124 39.2706 153.472C38.1368 153.886 37.0394 154.394 35.9898 154.991C34.0591 156.145 32.2943 157.556 30.7436 159.186L24.2982 165.598C23.2141 166.677 24.8916 168.355 25.9763 167.276Z" fill="#211715"/>
<path d="M207.374 147.012C204.93 149.913 202.199 152.56 199.222 154.911C199.036 155.096 198.917 155.338 198.883 155.598C198.85 155.859 198.904 156.123 199.037 156.349C199.853 157.362 200.783 158.278 201.807 159.079C203.011 160.151 204.304 161.12 205.672 161.973C205.9 162.103 206.163 162.155 206.423 162.122C206.682 162.088 206.924 161.971 207.111 161.788C209.662 158.88 211.485 155.403 213.131 151.927C213.282 151.653 213.321 151.332 213.242 151.03C213.163 150.728 212.971 150.468 212.705 150.303C212.433 150.147 212.11 150.104 211.806 150.184C211.503 150.263 211.243 150.459 211.082 150.729C209.529 154.007 207.841 157.367 205.433 160.109L206.87 159.924C205.673 159.18 204.542 158.336 203.488 157.4C202.946 156.943 202.412 156.476 201.896 155.99C201.709 155.812 201.523 155.638 201.347 155.451C201.291 155.392 201.239 155.333 201.182 155.273C201.072 155.163 201.412 155.587 201.088 155.155L200.903 156.592C203.879 154.24 206.609 151.593 209.052 148.69C209.267 148.464 209.387 148.163 209.387 147.851C209.387 147.539 209.267 147.239 209.052 147.012C208.828 146.792 208.526 146.668 208.212 146.668C207.898 146.668 207.598 146.792 207.374 147.012Z" fill="#211715"/>
<path d="M188.083 151.043C191.453 153.105 194.811 155.189 198.199 157.222L197.773 155.599C196.391 157.592 194.797 159.429 193.017 161.077L194.456 160.892C191.473 158.68 188.721 156.174 186.242 153.41C185.227 152.265 183.553 153.948 184.564 155.088C187.19 157.992 190.102 160.622 193.257 162.94C193.484 163.071 193.748 163.124 194.008 163.09C194.268 163.057 194.51 162.939 194.696 162.754C196.616 160.96 198.335 158.962 199.822 156.795C199.977 156.523 200.019 156.2 199.94 155.897C199.86 155.593 199.665 155.333 199.397 155.171C196.009 153.138 192.651 151.054 189.281 148.992C187.976 148.193 186.781 150.245 188.083 151.042V151.043Z" fill="#211715"/>
<path d="M252.635 176.703C252.891 176.716 253.525 176.613 253.738 176.742C253.75 176.748 253.924 177.153 253.987 177.311C254.308 178.134 254.575 178.976 254.788 179.833C255.193 181.493 255.447 183.186 255.545 184.892C255.812 188.347 255.596 191.822 254.904 195.217C254.237 198.276 252.658 201.285 249.993 203.059C248.807 203.906 247.375 204.34 245.917 204.294C244.41 204.204 242.975 203.33 241.806 202.428C240.157 201.154 238.968 199.261 237.74 197.605C236.378 195.767 235.058 193.899 233.781 192.001C232.932 190.74 230.873 191.927 231.731 193.199C233.064 195.177 234.44 197.121 235.862 199.032C237.116 200.719 238.324 202.612 239.951 203.963C241.371 205.241 243.095 206.134 244.959 206.554C246.767 206.838 248.619 206.527 250.235 205.668C253.662 203.926 256.003 200.361 256.981 196.724C257.431 194.88 257.716 192.999 257.832 191.105C258.015 189.082 258.047 187.049 257.928 185.022C257.815 182.784 257.457 180.565 256.859 178.406C256.563 177.388 256.253 176.066 255.561 175.241C254.79 174.322 253.731 174.382 252.635 174.328C251.108 174.255 251.112 176.628 252.635 176.702L252.635 176.703Z" fill="#211715"/>
<path d="M230.202 156.449C227.51 155.553 224.868 154.491 222.243 153.415C220.554 152.724 218.877 152.004 217.212 151.256C215.744 150.591 214.064 149.983 212.762 149.023C211.678 148.224 210.622 147.388 209.57 146.549C209.343 146.335 209.043 146.215 208.731 146.215C208.419 146.215 208.119 146.335 207.892 146.549C207.671 146.772 207.547 147.074 207.547 147.388C207.547 147.702 207.671 148.004 207.892 148.227C208.9 149.031 209.916 149.824 210.942 150.606C212.291 151.546 213.74 152.335 215.26 152.961C218.646 154.524 222.103 155.942 225.585 157.279C226.906 157.787 228.231 158.288 229.574 158.737C231.026 159.221 231.65 156.929 230.204 156.449H230.202Z" fill="#211715"/>
<path d="M239.241 156.074C239.255 155.194 240.175 154.698 240.948 154.675C242.075 154.643 243.273 155.375 244.239 155.884C245.344 156.465 246.422 157.096 247.49 157.742C248.052 158.083 248.613 158.426 249.173 158.773C249.327 158.856 249.473 158.954 249.609 159.065C249.785 159.23 249.95 159.407 250.101 159.595C250.663 160.242 251.038 161.031 251.185 161.875C251.267 162.853 251.207 163.838 251.007 164.8C250.801 166.708 250.768 168.631 250.908 170.545C251.037 172.49 251.264 174.434 251.572 176.361C251.738 177.401 251.738 178.387 251.038 179.226C250.877 179.42 250.701 179.601 250.534 179.79C250.46 179.874 250.392 179.963 250.316 180.044C250.475 179.874 250.447 179.957 250.355 180.012C250.105 180.151 249.842 180.263 249.568 180.346C248.031 180.912 246.385 181.119 244.755 180.952C244.232 180.902 243.713 180.809 243.205 180.673C243.061 180.634 242.918 180.593 242.778 180.543C242.624 180.487 242.809 180.584 242.559 180.438C242.186 180.234 241.857 179.956 241.593 179.623C240.447 178.133 240.11 176.03 239.836 174.226C239.641 172.936 239.512 171.862 238.693 170.792C237.854 169.73 236.791 168.867 235.579 168.264C234.223 167.566 233.021 169.613 234.381 170.313C235.502 170.814 236.45 171.635 237.107 172.672C237.33 173.206 237.455 173.776 237.475 174.354C237.568 175.025 237.676 175.695 237.815 176.358C238.188 178.151 238.774 180.008 240.007 181.405C241.253 182.818 243.077 183.177 244.875 183.337C246.792 183.504 248.722 183.225 250.513 182.521C251.581 182.106 252.494 181.369 253.125 180.412C253.756 179.456 254.074 178.326 254.035 177.181C253.993 176.121 253.747 175.062 253.62 174.009C253.478 172.83 253.354 171.647 253.277 170.462C253.106 168.421 253.166 166.366 253.455 164.338C253.696 163.148 253.646 161.918 253.311 160.751C252.977 159.584 252.366 158.514 251.531 157.633C250.559 156.59 249.088 155.924 247.874 155.205C246.487 154.343 245.039 153.583 243.542 152.932C242.059 152.324 240.516 152.025 239.007 152.757C238.389 153.073 237.867 153.546 237.491 154.129C237.116 154.711 236.902 155.383 236.871 156.076C236.845 157.604 239.219 157.604 239.244 156.076L239.241 156.074Z" fill="#211715"/>
<path d="M244.803 159.025C243.426 158.285 242.027 157.58 240.623 156.889C240.136 156.618 239.627 156.389 239.101 156.205C238.484 156.027 237.828 156.037 237.217 156.232C236.606 156.428 236.066 156.801 235.668 157.304C235.223 157.875 234.957 158.566 234.905 159.288C234.853 160.01 235.017 160.731 235.376 161.36C235.454 161.495 235.559 161.613 235.683 161.707C235.807 161.801 235.949 161.87 236.1 161.909C236.25 161.949 236.407 161.958 236.562 161.937C236.716 161.916 236.865 161.865 237 161.786C237.134 161.707 237.252 161.603 237.346 161.479C237.44 161.355 237.509 161.213 237.549 161.062C237.588 160.911 237.598 160.754 237.577 160.6C237.555 160.445 237.504 160.297 237.425 160.162C237.387 160.101 237.352 160.038 237.321 159.973C237.368 160.089 237.368 160.08 237.321 159.947C237.299 159.875 237.281 159.802 237.266 159.728C237.276 159.834 237.277 159.846 237.27 159.756C237.257 159.618 237.257 159.479 237.27 159.341C237.25 159.55 237.317 159.171 237.329 159.123C237.346 159.063 237.366 159.005 237.389 158.947C237.355 159.043 237.37 159.025 237.432 158.894C237.468 158.83 237.508 158.768 237.551 158.708C237.478 158.804 237.487 158.801 237.577 158.698C237.619 158.663 237.861 158.492 237.667 158.611C237.727 158.572 237.788 158.536 237.851 158.504C237.729 158.548 237.733 158.546 237.864 158.5C237.919 158.485 238.223 158.426 237.974 158.454C238.026 158.448 238.448 158.472 238.227 158.437C238.349 158.456 238.461 158.505 238.583 158.529C238.752 158.562 238.26 158.379 238.41 158.454C238.629 158.565 238.857 158.662 239.079 158.769C240.599 159.508 242.111 160.271 243.6 161.071C243.873 161.224 244.195 161.264 244.497 161.185C244.8 161.105 245.06 160.912 245.224 160.645C245.379 160.373 245.421 160.05 245.342 159.747C245.262 159.443 245.067 159.183 244.798 159.022L244.803 159.025Z" fill="#211715"/>
<path d="M241.242 161.766C239.975 161.174 238.663 160.684 237.319 160.3C236.707 160.072 236.056 159.97 235.405 160C234.697 160.095 234.046 160.436 233.565 160.963C233.073 161.512 232.789 162.217 232.761 162.954C232.734 163.691 232.965 164.414 233.415 164.998C234.093 165.712 234.915 166.273 235.826 166.644C236.761 167.085 237.714 167.486 238.664 167.89C238.938 168.04 239.259 168.08 239.561 168.001C239.863 167.922 240.123 167.73 240.288 167.464C240.443 167.192 240.486 166.869 240.406 166.566C240.327 166.262 240.132 166.002 239.862 165.84C238.454 165.301 237.091 164.652 235.785 163.899C235.685 163.836 235.589 163.769 235.488 163.707C235.446 163.68 235.31 163.568 235.488 163.714C235.451 163.683 235.413 163.655 235.377 163.62C235.371 163.615 235.14 163.393 235.147 163.388C235.154 163.383 235.294 163.576 235.194 163.429C235.078 163.259 235.227 163.58 235.2 163.447C235.168 163.347 235.143 163.246 235.124 163.144C235.151 163.137 235.133 163.384 235.133 163.185C235.133 163.126 235.128 163.063 235.128 163.001C235.128 162.956 235.135 162.91 235.133 162.865C235.126 162.705 235.061 163.059 235.124 162.92C235.137 162.88 235.147 162.839 235.151 162.797C235.187 162.568 235.057 162.939 235.134 162.821C235.187 162.738 235.326 162.537 235.179 162.708C235.262 162.613 235.353 162.53 235.44 162.443C235.428 162.456 235.271 162.551 235.38 162.489C235.433 162.46 235.482 162.424 235.535 162.394C235.575 162.372 235.615 162.354 235.654 162.335C235.426 162.458 235.582 162.365 235.66 162.349C235.963 162.29 235.507 162.345 235.723 162.339C235.972 162.332 235.647 162.33 235.656 162.32C235.712 162.329 235.766 162.342 235.82 162.36C236.072 162.425 236.324 162.491 236.576 162.559C237.175 162.718 237.765 162.91 238.342 163.134C238.67 163.264 239 163.39 239.328 163.52C239.47 163.575 239.611 163.632 239.753 163.689C239.972 163.778 239.813 163.713 239.765 163.693C239.856 163.733 239.947 163.773 240.036 163.812C240.31 163.963 240.631 164.003 240.934 163.924C241.236 163.845 241.496 163.652 241.66 163.386C241.815 163.113 241.858 162.791 241.778 162.488C241.698 162.184 241.503 161.924 241.234 161.763L241.242 161.766Z" fill="#211715"/>
<path d="M235.301 163.794C234.773 163.67 234.222 163.68 233.699 163.825C233.177 163.97 232.699 164.243 232.309 164.621C231.598 165.329 231.195 166.289 231.188 167.292C231.18 168.295 231.57 169.261 232.271 169.979C232.631 170.36 233.016 170.721 233.398 171.083C233.911 171.595 234.458 172.072 235.036 172.51C235.308 172.667 235.631 172.711 235.936 172.631C236.24 172.551 236.5 172.355 236.66 172.084C236.81 171.81 236.85 171.489 236.771 171.187C236.691 170.885 236.499 170.625 236.234 170.46C236.025 170.31 236.447 170.643 236.293 170.506C236.25 170.468 236.205 170.433 236.161 170.395C236.042 170.292 235.924 170.187 235.805 170.081C235.55 169.85 235.299 169.614 235.051 169.377C234.647 168.991 234.267 168.571 233.857 168.19C233.802 168.125 233.818 168.147 233.907 168.256C233.872 168.207 233.84 168.157 233.808 168.105C233.761 168.026 233.721 167.944 233.679 167.863C233.808 168.11 233.685 167.868 233.663 167.8C233.609 167.686 233.577 167.562 233.571 167.436L233.586 167.566C233.578 167.507 233.573 167.442 233.57 167.381C233.566 167.288 233.57 167.196 233.57 167.104C233.583 166.967 233.58 166.982 233.561 167.148C233.571 167.089 233.585 167.029 233.6 166.97C233.623 166.889 233.744 166.678 233.606 166.921C233.715 166.729 233.829 166.542 233.945 166.354C234.07 166.151 233.817 166.455 233.992 166.295C234.044 166.247 234.212 166.138 234.028 166.244C234.057 166.227 234.37 166.049 234.216 166.122C234.061 166.195 234.381 166.056 234.42 166.072C234.272 166.087 234.242 166.091 234.335 166.084C234.382 166.079 234.43 166.077 234.478 166.077C234.526 166.077 234.944 166.119 234.674 166.077C234.978 166.152 235.299 166.108 235.57 165.953C235.842 165.799 236.044 165.546 236.135 165.246C236.215 164.943 236.172 164.62 236.017 164.347C235.862 164.074 235.606 163.873 235.304 163.787L235.301 163.794Z" fill="#211715"/>
<path d="M236.49 155.418C235.881 155.302 235.337 154.981 234.724 154.884C234.067 154.768 233.392 154.816 232.759 155.023C231.479 155.488 230.413 156.404 229.759 157.598C229.062 158.75 228.628 160.042 228.489 161.381C228.392 162.746 228.739 164.194 229.913 165.004C230.532 165.378 231.241 165.576 231.964 165.577C232.687 165.578 233.397 165.382 234.017 165.01C234.289 164.851 234.486 164.591 234.566 164.287C234.646 163.982 234.602 163.658 234.443 163.387C234.284 163.115 234.023 162.917 233.719 162.837C233.414 162.757 233.091 162.802 232.819 162.961C232.698 163.034 232.568 163.092 232.432 163.132C232.397 163.143 232.045 163.218 232.232 163.192C232.112 163.207 231.991 163.212 231.871 163.207C231.796 163.207 231.721 163.201 231.646 163.194C231.787 163.215 231.791 163.214 231.658 163.19C231.573 163.167 231.486 163.142 231.399 163.122C231.192 163.072 231.559 163.236 231.331 163.091C231.27 163.059 231.211 163.024 231.153 162.986C231.238 163.058 231.249 163.066 231.186 163.011C231.145 162.976 231.107 162.938 231.071 162.899C231.139 163 231.134 162.992 231.056 162.874C230.932 162.713 231.036 162.927 230.984 162.712C230.947 162.557 230.905 162.402 230.88 162.243C230.856 162.003 230.848 161.762 230.857 161.521C230.922 160.966 231.067 160.424 231.285 159.91C231.489 159.374 231.752 158.863 232.069 158.385C232.191 158.209 232.332 158.047 232.488 157.9C232.526 157.863 232.832 157.609 232.732 157.682C232.834 157.608 232.94 157.54 233.05 157.478C233.395 157.244 233.813 157.143 234.226 157.194C234.04 157.182 234.423 157.242 234.479 157.259C234.634 157.305 234.785 157.362 234.937 157.419C235.236 157.542 235.545 157.639 235.861 157.707C236.165 157.783 236.485 157.739 236.757 157.584C237.029 157.429 237.231 157.176 237.321 156.877C237.402 156.573 237.36 156.25 237.204 155.977C237.049 155.704 236.792 155.503 236.49 155.417V155.418Z" fill="#211715"/>
<path d="M187.494 149.091C186.339 150.133 185.187 151.184 183.98 152.166C183.53 152.555 183.022 152.87 182.475 153.1C181.684 153.424 180.897 153.76 180.113 154.109C177.202 155.409 174.402 156.947 171.743 158.707C169.678 160.024 167.786 161.596 166.112 163.385C164.438 165.234 162.908 167.21 161.378 169.18C159.99 171.084 158.507 172.916 156.934 174.67C155.88 175.775 157.556 177.459 158.612 176.348C159.966 174.851 161.243 173.285 162.437 171.657C163.98 169.668 165.512 167.669 167.163 165.771C168.674 164.024 170.406 162.48 172.315 161.179C174.939 159.389 177.707 157.82 180.59 156.488C181.421 156.102 182.26 155.735 183.106 155.387C183.528 155.242 183.94 155.067 184.337 154.863C184.677 154.637 185.002 154.39 185.31 154.122C186.647 153.064 187.906 151.908 189.173 150.768C190.31 149.743 188.627 148.068 187.494 149.089V149.091Z" fill="#211715"/>
<path d="M149.322 150.442C155.959 151.434 162.379 153.549 168.305 156.697C169.655 157.409 170.857 155.362 169.503 154.648C163.402 151.388 156.789 149.191 149.95 148.152C149.647 148.079 149.327 148.124 149.056 148.278C148.784 148.433 148.582 148.684 148.49 148.983C148.409 149.286 148.45 149.61 148.606 149.883C148.761 150.156 149.018 150.357 149.321 150.442H149.322Z" fill="#211715"/>
<path d="M173.527 192.233C168.636 195.833 163.914 199.647 159.218 203.494C158.998 203.718 158.874 204.019 158.874 204.333C158.874 204.647 158.998 204.949 159.218 205.173C159.444 205.389 159.745 205.509 160.057 205.509C160.37 205.509 160.671 205.389 160.897 205.173C165.438 201.453 169.997 197.762 174.723 194.283C174.988 194.118 175.179 193.857 175.259 193.556C175.338 193.254 175.299 192.933 175.149 192.659C174.988 192.389 174.728 192.193 174.424 192.113C174.12 192.034 173.797 192.077 173.525 192.233H173.527Z" fill="#211715"/>
<path d="M82.6962 187.972C88.4634 191.857 93.852 196.262 99.3206 200.547C99.5479 200.76 99.8479 200.879 100.16 200.879C100.471 200.879 100.772 200.76 100.999 200.547C101.22 200.323 101.343 200.022 101.343 199.707C101.343 199.393 101.22 199.092 100.999 198.868C95.371 194.46 89.8288 189.92 83.8943 185.923C82.6238 185.067 81.4346 187.122 82.6962 187.972Z" fill="#211715"/>
<path d="M91.7691 157.785C94.6382 155.809 97.9731 154.483 101.237 153.32C104.43 152.11 107.735 151.216 111.103 150.65C111.406 150.565 111.663 150.364 111.818 150.091C111.974 149.817 112.015 149.494 111.934 149.19C111.844 148.891 111.642 148.637 111.37 148.483C111.098 148.328 110.777 148.284 110.474 148.359C107.034 148.939 103.66 149.858 100.401 151.104C97.0242 152.319 93.5452 153.688 90.5729 155.733C89.3226 156.593 90.5082 158.651 91.7709 157.782L91.7691 157.785Z" fill="#211715"/>
<path d="M75.7856 155.833C80.6982 157.951 85.9444 160.123 89.8857 163.851C93.9107 167.657 96.9601 172.376 100.814 176.34C101.882 177.437 103.559 175.758 102.492 174.662C99.4714 171.555 96.8693 168.036 94.0193 164.773C92.575 163.078 90.9504 161.546 89.1742 160.204C87.433 158.939 85.5915 157.817 83.6682 156.851C81.4863 155.732 79.2367 154.754 76.9854 153.783C76.7114 153.635 76.391 153.596 76.0895 153.675C75.7879 153.754 75.5277 153.945 75.3619 154.209C75.2052 154.481 75.162 154.804 75.2416 155.108C75.3212 155.412 75.5173 155.672 75.7873 155.833L75.7856 155.833Z" fill="#211715"/>
<path d="M144.453 149.704C142.318 152.468 139.435 154.562 136.146 155.738C133.771 156.501 131.263 156.76 128.783 156.499C126.302 156.238 123.904 155.462 121.74 154.221C119.657 153.074 117.605 151.55 116.387 149.461C115.615 148.143 113.564 149.337 114.337 150.659C115.64 152.721 117.419 154.44 119.524 155.672C121.949 157.199 124.651 158.236 127.475 158.723C130.022 159.153 132.63 159.067 135.143 158.47C137.656 157.873 140.023 156.778 142.105 155.25C143.777 154.024 145.26 152.559 146.505 150.902C146.662 150.63 146.705 150.307 146.626 150.003C146.546 149.7 146.35 149.439 146.08 149.279C145.806 149.127 145.485 149.087 145.183 149.166C144.88 149.246 144.62 149.438 144.456 149.704H144.453Z" fill="#211715"/>
<path d="M176.99 125.598C176.288 125.108 175.462 124.828 174.608 124.788C173.753 124.748 172.905 124.951 172.161 125.373C171.617 125.708 171.154 126.16 170.808 126.696C170.461 127.232 170.239 127.84 170.159 128.473C169.944 129.96 170.044 131.474 170.451 132.92C170.859 134.365 171.565 135.709 172.524 136.864C173.813 138.459 175.669 139.475 177.746 139.071C178.048 138.985 178.304 138.783 178.46 138.511C178.615 138.238 178.657 137.915 178.577 137.611C178.488 137.311 178.286 137.056 178.014 136.901C177.742 136.746 177.42 136.703 177.117 136.78C175.742 137.048 174.554 135.761 173.883 134.725C173.164 133.674 172.685 132.479 172.479 131.224C172.31 130.122 172.286 128.783 172.889 127.825C173.018 127.621 172.785 127.918 172.958 127.743C173.017 127.684 173.195 127.516 173.198 127.515C173.411 127.382 173.644 127.284 173.888 127.225C174.216 127.141 174.559 127.136 174.89 127.209C175.22 127.282 175.529 127.432 175.791 127.647C176.063 127.804 176.386 127.847 176.69 127.768C176.994 127.688 177.254 127.492 177.415 127.221C177.566 126.948 177.606 126.626 177.527 126.324C177.447 126.022 177.255 125.761 176.989 125.597L176.99 125.598Z" fill="#211715"/>
<path d="M216.136 124.916C216.364 124.695 216.64 124.528 216.942 124.429C217.245 124.331 217.566 124.302 217.881 124.346C218.145 124.369 218.4 124.45 218.629 124.583C218.866 124.724 218.785 124.678 219.011 124.912C219.183 125.091 218.92 124.753 219.043 124.951C219.122 125.079 219.204 125.201 219.271 125.336C219.39 125.588 219.483 125.851 219.548 126.122C219.717 126.802 219.79 127.503 219.764 128.203C219.719 129.397 219.428 130.569 218.908 131.645C218.3 132.926 217.309 134.327 215.736 134.232C214.21 134.141 214.215 136.514 215.736 136.606C219.206 136.814 221.159 133.164 221.876 130.275C222.489 127.804 222.284 123.905 219.768 122.502C218.918 122.047 217.947 121.874 216.993 122.006C216.038 122.138 215.151 122.57 214.457 123.238C213.368 124.313 215.047 125.991 216.136 124.916Z" fill="#211715"/>
<path d="M214.617 133.671C214.184 136.507 213.119 139.209 211.503 141.579C209.758 144.332 207.349 147.368 204.096 148.335C202.635 148.77 203.257 151.061 204.727 150.624C208.492 149.504 211.292 146.254 213.363 143.071C215.159 140.436 216.367 137.445 216.906 134.302C216.979 133.998 216.934 133.678 216.78 133.407C216.625 133.136 216.373 132.934 216.075 132.842C215.771 132.761 215.448 132.802 215.175 132.958C214.901 133.113 214.701 133.37 214.615 133.673L214.617 133.671Z" fill="#211715"/>
<path d="M176.016 136.76C178.246 144.072 184.36 151.23 192.379 151.871C193.902 151.993 193.894 149.617 192.379 149.498C188.872 149.217 185.911 147.314 183.487 144.865C181.077 142.416 179.298 139.418 178.305 136.129C177.86 134.673 175.568 135.293 176.016 136.76Z" fill="#211715"/>
<path d="M207.636 97.1014C203.997 95.1624 199.95 94.1129 195.827 94.0391C191.704 93.9653 187.622 94.8691 183.916 96.6765C180.894 98.1913 178.222 100.318 176.067 102.922C173.913 105.527 172.324 108.551 171.402 111.802C170.16 116.542 170.348 121.543 171.942 126.176C172.423 127.618 174.716 126.999 174.231 125.545C172.905 121.759 172.611 117.689 173.377 113.751C174.022 110.617 175.374 107.67 177.329 105.136C179.363 102.532 181.941 100.403 184.885 98.8993C187.828 97.3959 191.064 96.5542 194.366 96.4332C198.563 96.2159 202.739 97.1561 206.438 99.151C207.782 99.8779 208.982 97.8289 207.636 97.1014Z" fill="#211715"/>
<path d="M219.52 123.212C220.041 120.663 220.174 118.051 219.914 115.462C219.65 113.086 219.054 110.759 218.142 108.549C216.613 104.919 214.169 101.746 211.05 99.3402C210.823 99.1268 210.523 99.0081 210.211 99.0081C209.899 99.0081 209.599 99.1268 209.372 99.3402C209.151 99.5636 209.028 99.8651 209.028 100.179C209.028 100.493 209.151 100.795 209.372 101.018C212.217 103.181 214.465 106.032 215.904 109.303C217.656 113.498 218.118 118.12 217.231 122.579C216.958 124.072 219.245 124.715 219.52 123.21V123.212Z" fill="#211715"/>
<path d="M193.453 141.663C194.717 142.216 196.099 142.445 197.475 142.33C198.881 142.3 200.24 141.82 201.353 140.96C201.574 140.737 201.698 140.435 201.698 140.121C201.698 139.806 201.574 139.505 201.353 139.281C201.127 139.066 200.826 138.946 200.514 138.946C200.201 138.946 199.901 139.066 199.674 139.281C199.467 139.459 199.874 139.153 199.719 139.251C199.644 139.298 199.574 139.35 199.498 139.396C199.423 139.442 199.334 139.489 199.25 139.532C199.196 139.565 199.138 139.593 199.078 139.612C199.123 139.625 199.355 139.506 199.137 139.586C198.866 139.686 198.589 139.768 198.307 139.832C198.212 139.853 198.118 139.872 198.023 139.891C197.993 139.897 197.717 139.944 197.873 139.919C198.03 139.894 197.735 139.935 197.704 139.938C197.586 139.949 197.468 139.959 197.352 139.967C196.966 139.994 196.578 139.996 196.192 139.973C196.113 139.968 196.034 139.962 195.954 139.954L195.82 139.94C195.727 139.929 195.76 139.934 195.922 139.954C195.79 139.952 195.659 139.929 195.535 139.885C195.306 139.836 195.081 139.773 194.861 139.695C194.782 139.668 194.704 139.636 194.626 139.607C194.374 139.51 194.933 139.739 194.648 139.616C194.374 139.465 194.053 139.426 193.751 139.505C193.449 139.584 193.189 139.777 193.024 140.042C192.869 140.315 192.826 140.637 192.906 140.941C192.985 141.244 193.18 141.504 193.45 141.666L193.453 141.663Z" fill="#211715"/>
<path d="M196.144 132.558C196.251 132.871 196.35 133.187 196.445 133.503C196.557 133.832 196.644 134.169 196.706 134.512L196.664 134.196C196.671 134.262 196.671 134.329 196.664 134.395L196.706 134.079C196.7 134.11 196.692 134.14 196.682 134.169L196.801 133.885C196.788 133.912 196.773 133.939 196.756 133.963L196.941 133.723C196.929 133.739 196.914 133.753 196.898 133.766L197.135 133.581C197.065 133.63 196.989 133.672 196.91 133.705L197.193 133.587C197.116 133.618 197.035 133.639 196.953 133.651L197.268 133.609C197.117 133.615 196.966 133.607 196.816 133.586C196.581 133.586 196.352 133.656 196.157 133.786C195.962 133.917 195.81 134.102 195.72 134.319C195.63 134.536 195.607 134.774 195.652 135.004C195.698 135.234 195.811 135.446 195.977 135.612C196.206 135.824 196.504 135.948 196.816 135.96C196.941 135.976 197.066 135.985 197.192 135.989C197.554 135.977 197.908 135.877 198.224 135.699C198.415 135.599 198.582 135.458 198.714 135.288C198.846 135.118 198.94 134.921 198.99 134.711C199.057 134.369 199.043 134.017 198.95 133.681C198.804 133.088 198.625 132.507 198.428 131.93C198.338 131.636 198.144 131.383 197.882 131.221C197.748 131.143 197.599 131.091 197.445 131.07C197.29 131.049 197.133 131.058 196.982 131.098C196.831 131.137 196.69 131.206 196.566 131.3C196.441 131.394 196.337 131.512 196.258 131.647C196.178 131.784 196.127 131.935 196.106 132.092C196.086 132.249 196.097 132.409 196.14 132.561L196.144 132.558Z" fill="#211715"/>
<path d="M185.804 127.929C185.549 128.965 185.912 131.288 187.908 131.357C190.528 131.17 190.483 128.337 189.514 127.067C188.72 126.027 186.566 125.714 185.804 127.929Z" fill="#211715"/>
<path d="M206.797 126.556C207.186 127.55 207.129 129.899 205.158 130.228C202.536 130.384 202.212 127.569 203.007 126.183C203.657 125.05 205.751 124.458 206.797 126.556Z" fill="#211715"/>
<path d="M72.0448 38.313L86.1254 72.8228C86.217 73.1212 86.4191 73.3734 86.6905 73.5278C86.9618 73.6822 87.2818 73.7272 87.5852 73.6536C87.888 73.5687 88.1451 73.3678 88.3006 73.0945C88.4562 72.8212 88.4976 72.4975 88.4159 72.1938L74.3335 37.6816C74.242 37.3831 74.04 37.1308 73.7686 36.9764C73.4973 36.822 73.1772 36.7771 72.8738 36.8508C72.5711 36.9358 72.3141 37.1368 72.1585 37.4101C72.003 37.6833 71.9615 38.0069 72.0431 38.3106L72.0448 38.313Z" fill="#211715"/>
<path d="M29.9224 56.5318C34.8475 62.5429 39.9281 68.4299 45.0212 74.298C46.4999 76.0022 47.9864 77.6995 49.4805 79.3899C50.4952 80.5357 52.1692 78.8517 51.1586 77.7117C45.6116 71.4515 40.1726 65.0891 34.7923 58.687C33.7218 57.4148 32.6579 56.137 31.6005 54.8537C30.6321 53.6711 28.9617 55.3587 29.9224 56.5318Z" fill="#211715"/>
<path d="M187.318 37.6815L173.237 72.192C173.156 72.4957 173.197 72.8192 173.353 73.0924C173.508 73.3656 173.765 73.5666 174.068 73.6517C174.371 73.7278 174.692 73.6839 174.964 73.5291C175.236 73.3744 175.438 73.1207 175.527 72.821L189.609 38.3111C189.69 38.0075 189.649 37.6839 189.493 37.4106C189.338 37.1373 189.081 36.9364 188.778 36.8514C188.474 36.7753 188.153 36.8193 187.881 36.974C187.61 37.1288 187.408 37.3824 187.318 37.6821V37.6815Z" fill="#211715"/>
<path d="M230.051 54.8536C225.126 60.8647 220.045 66.7517 214.952 72.6198C213.473 74.3236 211.986 76.0209 210.493 77.7117C209.484 78.851 211.156 80.5356 212.171 79.3898C217.718 73.1295 223.155 66.7678 228.538 60.3657C229.606 59.0926 230.67 57.8147 231.729 56.5318C232.689 55.3592 231.017 53.6704 230.051 54.8536Z" fill="#211715"/>
<path d="M219.669 134.511C221.55 136.631 223.862 138.324 226.451 139.477C228.993 140.525 231.623 141.343 234.311 141.922L233.602 140.179C232.436 142.907 230.965 145.495 229.218 147.893L230.558 147.347C228.929 146.781 227.002 145.443 225.449 144.321C223.124 142.649 220.977 140.744 219.04 138.635C218.008 137.504 216.333 139.186 217.362 140.313C219.446 142.562 221.756 144.592 224.253 146.371C225.979 147.725 227.891 148.824 229.93 149.634C230.182 149.699 230.449 149.682 230.69 149.583C230.931 149.485 231.135 149.312 231.27 149.089C233.017 146.691 234.488 144.103 235.654 141.375C235.742 141.217 235.793 141.041 235.804 140.861C235.815 140.68 235.785 140.5 235.716 140.332C235.648 140.165 235.543 140.015 235.409 139.894C235.275 139.772 235.115 139.683 234.942 139.631C232.451 139.112 230.011 138.374 227.649 137.426C225.242 136.367 223.092 134.799 221.347 132.831C220.329 131.688 218.655 133.372 219.669 134.509V134.511Z" fill="#211715"/>
<path d="M205.161 116.036C205.429 116.305 205.677 116.592 205.919 116.884C206.067 117.062 206.215 117.245 206.357 117.428C206.43 117.52 206.503 117.612 206.575 117.705C206.612 117.753 206.649 117.801 206.686 117.849C206.773 117.96 206.562 117.687 206.7 117.866C207.445 118.84 208.183 119.82 208.934 120.788C209.637 121.694 210.358 122.593 211.139 123.431C211.756 124.159 212.493 124.776 213.317 125.257C214.228 125.722 215.437 125.815 216.136 124.916C216.349 124.689 216.468 124.389 216.468 124.077C216.468 123.765 216.349 123.465 216.136 123.238C215.912 123.017 215.61 122.893 215.296 122.893C214.982 122.893 214.681 123.017 214.457 123.238C214.413 123.282 214.371 123.329 214.332 123.378C214.254 123.511 214.605 123.2 214.4 123.319C214.259 123.398 214.722 123.206 214.513 123.266C214.315 123.325 214.86 123.23 214.601 123.249C214.376 123.266 214.798 123.314 214.694 123.264C214.641 123.242 214.586 123.226 214.529 123.218C214.313 123.182 214.767 123.354 214.566 123.234C214.49 123.189 214.409 123.152 214.334 123.107C214.269 123.069 214.207 123.028 214.145 122.989C214.113 122.967 213.849 122.777 214.016 122.9C214.183 123.024 213.944 122.841 213.908 122.81C213.808 122.726 213.711 122.64 213.615 122.552C213.28 122.246 212.962 121.919 212.659 121.584C211.937 120.794 211.268 119.957 210.612 119.113L210.482 118.946C210.611 119.112 210.498 118.966 210.474 118.934C210.388 118.822 210.302 118.711 210.217 118.599C210.048 118.378 209.879 118.157 209.711 117.935C209.391 117.513 209.072 117.091 208.749 116.671C208.163 115.861 207.525 115.089 206.84 114.361C205.76 113.278 204.081 114.954 205.161 116.039V116.036Z" fill="#211715"/>
<path d="M138.327 142.841C138.356 143.845 138.548 144.839 138.894 145.783C139.295 146.69 139.888 147.5 140.631 148.156C141.936 149.356 143.354 150.425 144.866 151.349C145.139 151.505 145.462 151.548 145.766 151.469C146.069 151.389 146.33 151.193 146.49 150.923C146.643 150.65 146.683 150.328 146.604 150.026C146.524 149.723 146.331 149.463 146.064 149.3C145.395 148.872 144.729 148.44 144.085 147.973C144.006 147.916 143.927 147.859 143.848 147.801C143.833 147.789 143.658 147.658 143.737 147.718C143.833 147.791 143.603 147.612 143.583 147.596C143.507 147.537 143.431 147.474 143.356 147.412C143.06 147.168 142.772 146.914 142.492 146.653C141.935 146.215 141.474 145.668 141.137 145.045C141.126 145.02 141.035 144.769 140.986 144.601C140.926 144.41 140.881 144.216 140.841 144.021C140.759 143.633 140.711 143.238 140.698 142.842C140.698 142.527 140.573 142.225 140.35 142.003C140.128 141.78 139.826 141.655 139.511 141.655C139.196 141.655 138.894 141.78 138.672 142.003C138.449 142.225 138.324 142.527 138.324 142.842L138.327 142.841Z" fill="#211715"/>
<path d="M115.962 151.087C117.44 150.217 118.834 149.21 120.124 148.078C120.823 147.512 121.406 146.815 121.839 146.026C122.256 145.081 122.512 144.072 122.596 143.042C122.596 142.728 122.47 142.426 122.248 142.204C122.026 141.982 121.724 141.856 121.41 141.855C121.098 141.864 120.801 141.992 120.58 142.212C120.359 142.433 120.231 142.73 120.223 143.042C120.223 143.038 120.183 143.356 120.197 143.264C120.213 143.156 120.165 143.453 120.159 143.48C120.123 143.684 120.08 143.887 120.029 144.088C119.977 144.29 119.916 144.478 119.851 144.67C119.832 144.726 119.791 144.838 119.838 144.72C119.792 144.829 119.741 144.935 119.683 145.038C119.647 145.105 119.606 145.171 119.565 145.236C119.565 145.231 119.387 145.481 119.454 145.396C119.53 145.302 119.342 145.524 119.325 145.543C119.26 145.615 119.193 145.685 119.126 145.754C118.852 146.033 118.563 146.297 118.271 146.556C118.005 146.794 117.732 147.02 117.455 147.242C117.177 147.464 117.553 147.169 117.395 147.29C117.323 147.344 117.251 147.398 117.178 147.452C117.032 147.559 116.885 147.664 116.737 147.768C116.095 148.215 115.431 148.628 114.765 149.037C114.494 149.196 114.296 149.456 114.216 149.761C114.136 150.066 114.181 150.389 114.34 150.661C114.499 150.933 114.759 151.13 115.063 151.21C115.368 151.29 115.692 151.246 115.963 151.087H115.962Z" fill="#211715"/>
<path d="M111.617 118.078C110.96 117.498 110.15 117.119 109.284 116.987C108.418 116.854 107.532 116.974 106.732 117.331C106.169 117.602 105.674 117.996 105.281 118.482C104.889 118.968 104.61 119.536 104.464 120.143C104.107 121.585 104.06 123.085 104.326 124.546C104.591 126.007 105.164 127.394 106.006 128.617C107.128 130.266 108.866 131.703 110.984 131.453C111.296 131.444 111.592 131.316 111.813 131.095C112.033 130.875 112.161 130.578 112.171 130.267C112.169 129.952 112.043 129.652 111.821 129.429C111.599 129.207 111.298 129.082 110.984 129.08C108.285 129.395 106.73 125.556 106.555 123.357C106.464 122.214 106.48 120.8 107.199 119.847C107.027 120.076 107.512 119.585 107.424 119.647C107.634 119.5 107.872 119.399 108.124 119.35C108.437 119.273 108.764 119.268 109.08 119.338C109.395 119.408 109.69 119.551 109.941 119.754C111.083 120.763 112.768 119.088 111.619 118.076L111.617 118.078Z" fill="#211715"/>
<path d="M150.603 120.093C150.843 119.908 151.121 119.778 151.417 119.713C151.713 119.648 152.02 119.649 152.316 119.716C152.534 119.745 152.743 119.817 152.933 119.928C153.122 120.039 153.287 120.188 153.418 120.364C153.299 120.218 153.389 120.317 153.438 120.415C153.494 120.525 153.564 120.627 153.616 120.742C153.717 120.995 153.792 121.258 153.841 121.526C153.97 122.212 153.999 122.913 153.929 123.608C153.807 124.8 153.438 125.953 152.845 126.993C152.251 128.075 151.111 129.646 149.681 129.454C149.377 129.381 149.058 129.426 148.787 129.581C148.515 129.735 148.313 129.986 148.221 130.284C148.139 130.588 148.181 130.912 148.336 131.185C148.492 131.458 148.749 131.659 149.052 131.744C152.689 132.234 154.897 128.886 155.897 125.84C156.706 123.373 156.681 119.563 154.273 117.969C153.449 117.469 152.488 117.242 151.528 117.323C150.567 117.403 149.657 117.786 148.928 118.417C148.708 118.64 148.585 118.942 148.585 119.256C148.585 119.57 148.708 119.871 148.928 120.095C149.154 120.311 149.454 120.432 149.767 120.432C150.08 120.432 150.381 120.311 150.606 120.095L150.603 120.093Z" fill="#211715"/>
<path d="M148.348 128.855C148.114 129.895 147.785 130.912 147.365 131.891C147.312 132.014 146.911 132.894 147.095 132.492C147.007 132.683 146.917 132.874 146.821 133.062C146.189 134.267 145.458 135.419 144.637 136.504C142.683 139.134 140.032 141.915 136.712 142.641C135.221 142.967 135.852 145.256 137.343 144.929C141.176 144.091 144.191 140.993 146.476 137.982C147.381 136.814 148.182 135.57 148.871 134.262C148.979 134.052 149.08 133.839 149.174 133.623C149.171 133.63 149.411 133.089 149.279 133.385C149.383 133.153 149.487 132.922 149.585 132.688C150.028 131.654 150.38 130.583 150.637 129.488C150.97 128 148.682 127.365 148.348 128.857V128.855Z" fill="#211715"/>
<path d="M109.672 129.085C111.312 136.345 116.845 144.034 124.626 145.239C124.929 145.313 125.249 145.268 125.521 145.113C125.792 144.959 125.994 144.707 126.086 144.408C126.167 144.105 126.125 143.781 125.97 143.508C125.815 143.235 125.558 143.033 125.255 142.948C118.237 141.862 113.435 134.987 111.959 128.451C111.623 126.962 109.334 127.593 109.671 129.083L109.672 129.085Z" fill="#211715"/>
<path d="M144.044 91.7388C140.544 89.5351 136.568 88.1982 132.448 87.8393C128.327 87.4804 124.18 88.1097 120.352 89.675C117.247 90.9811 114.446 92.9157 112.126 95.3572C109.806 97.7987 108.016 100.694 106.87 103.861C105.298 108.498 105.133 113.497 106.395 118.228C106.77 119.708 109.059 119.08 108.684 117.596C106.91 110.594 108.367 103.078 113.241 97.6377C115.155 95.488 117.456 93.7179 120.025 92.42C123.527 90.7323 127.398 89.9518 131.281 90.1503C135.395 90.2986 139.393 91.5555 142.852 93.7884C144.142 94.6144 145.333 92.5612 144.05 91.7388H144.044Z" fill="#211715"/>
<path d="M154.065 118.62C155.403 113.813 155.295 108.718 153.754 103.971C152.475 100.217 150.251 96.8549 147.297 94.2087C146.164 93.1904 144.479 94.8614 145.619 95.8874C148.284 98.2417 150.298 101.243 151.465 104.603C152.89 108.936 152.999 113.595 151.776 117.989C151.391 119.468 153.679 120.1 154.065 118.62Z" fill="#211715"/>
<path d="M126.753 135.224C127.946 135.837 129.269 136.152 130.61 136.142C131.882 136.154 133.38 135.97 134.435 135.186C134.701 135.022 134.894 134.762 134.973 134.459C135.053 134.157 135.013 133.835 134.861 133.562C134.7 133.293 134.44 133.097 134.136 133.018C133.833 132.938 133.51 132.981 133.238 133.136C133.11 133.23 132.976 133.314 132.835 133.387C132.794 133.408 132.753 133.426 132.712 133.446C132.513 133.546 132.799 133.425 132.805 133.41C132.789 133.456 132.5 133.52 132.453 133.535C132.172 133.617 131.887 133.681 131.598 133.726C131.895 133.673 131.565 133.726 131.519 133.731C131.431 133.74 131.341 133.747 131.253 133.752C131.039 133.765 130.824 133.77 130.61 133.768C130.414 133.768 130.218 133.76 130.022 133.746C129.915 133.739 129.809 133.728 129.702 133.718C129.464 133.698 129.81 133.74 129.672 133.718C129.381 133.672 129.092 133.609 128.808 133.53C128.689 133.495 128.571 133.456 128.452 133.412C128.404 133.394 128.356 133.374 128.308 133.356C128.096 133.279 128.576 133.483 128.386 133.389C128.243 133.317 128.097 133.25 127.955 133.175C127.683 133.016 127.359 132.972 127.055 133.051C126.75 133.131 126.49 133.329 126.331 133.601C126.172 133.872 126.128 134.196 126.208 134.501C126.287 134.805 126.485 135.066 126.757 135.224H126.753Z" fill="#211715"/>
<path d="M130.055 126.382C130.226 127 130.362 127.627 130.462 128.26L130.419 127.945C130.431 128.031 130.433 128.118 130.424 128.204L130.467 127.888C130.46 127.929 130.45 127.969 130.436 128.007L130.555 127.723C130.543 127.75 130.528 127.775 130.512 127.798L130.697 127.558C130.686 127.573 130.672 127.587 130.658 127.599L130.895 127.414C130.841 127.452 130.783 127.484 130.722 127.507L131.005 127.389C130.924 127.422 130.84 127.445 130.754 127.459L131.069 127.417C130.982 127.428 130.893 127.428 130.806 127.417L131.121 127.459C131.034 127.446 130.947 127.425 130.859 127.413C130.706 127.363 130.542 127.356 130.385 127.392C130.228 127.398 130.075 127.447 129.943 127.532C129.808 127.611 129.691 127.715 129.596 127.84C129.502 127.964 129.433 128.105 129.394 128.256C129.354 128.407 129.345 128.564 129.366 128.719C129.387 128.873 129.438 129.022 129.517 129.156C129.593 129.291 129.695 129.408 129.817 129.502C129.94 129.596 130.08 129.664 130.229 129.702C130.449 129.732 130.664 129.785 130.888 129.799C131.246 129.807 131.601 129.725 131.92 129.562C132.115 129.471 132.289 129.34 132.429 129.177C132.569 129.013 132.672 128.822 132.732 128.615C132.818 128.273 132.819 127.916 132.737 127.573C132.635 126.962 132.5 126.357 132.341 125.758C132.3 125.608 132.229 125.467 132.133 125.344C132.037 125.221 131.918 125.118 131.783 125.041C131.647 124.964 131.498 124.915 131.343 124.896C131.189 124.876 131.032 124.888 130.881 124.929C130.731 124.971 130.59 125.041 130.467 125.137C130.344 125.233 130.241 125.352 130.165 125.487C130.088 125.623 130.038 125.772 130.019 125.927C130 126.082 130.011 126.239 130.052 126.389L130.055 126.382Z" fill="#211715"/>
<path d="M120.067 120.915C119.735 121.93 119.926 124.273 121.911 124.489C124.538 124.496 124.7 121.668 123.829 120.33C123.115 119.234 120.992 118.763 120.067 120.915Z" fill="#211715"/>
<path d="M141.101 121.098C141.415 122.118 141.185 124.457 139.196 124.638C136.569 124.6 136.454 121.769 137.349 120.446C138.082 119.363 140.218 118.929 141.101 121.098Z" fill="#211715"/>
<path d="M137.001 108.528C138.876 109.378 140.563 110.592 141.965 112.099C143.459 113.555 144.672 115.273 145.547 117.166C145.639 117.465 145.841 117.717 146.112 117.871C146.383 118.026 146.703 118.071 147.007 117.997C147.31 117.912 147.567 117.711 147.722 117.437C147.878 117.164 147.919 116.84 147.837 116.537C146.869 114.3 145.485 112.266 143.76 110.543C142.196 108.834 140.305 107.453 138.201 106.483C137.927 106.334 137.606 106.295 137.304 106.374C137.003 106.453 136.742 106.644 136.577 106.909C136.42 107.181 136.377 107.504 136.457 107.808C136.536 108.112 136.733 108.372 137.003 108.532L137.001 108.528Z" fill="#211715"/>
<path d="M114.752 117.245C116.308 115.6 117.963 114.051 119.708 112.608C120.541 111.913 121.409 111.262 122.31 110.659C122.688 110.409 123.074 110.169 123.471 109.947C123.575 109.89 123.68 109.833 123.786 109.778C123.667 109.805 123.544 109.804 123.426 109.775C123.307 109.746 123.197 109.689 123.105 109.61C123.109 109.881 123.127 110.151 123.16 110.419C123.117 111.613 123.862 112.694 125.162 112.608C126.098 112.548 127.126 111.733 127.935 111.284C129.907 110.117 131.948 109.071 134.047 108.151C134.346 108.06 134.598 107.858 134.752 107.586C134.907 107.315 134.952 106.994 134.878 106.691C134.793 106.388 134.592 106.132 134.319 105.976C134.045 105.821 133.722 105.779 133.418 105.86C131.191 106.816 129.024 107.907 126.93 109.128C126.455 109.392 125.981 109.657 125.5 109.919C125.333 109.988 125.174 110.074 125.025 110.175C124.748 110.285 124.835 110.333 125.285 110.32C125.467 110.688 125.551 110.721 125.535 110.418C125.635 109.761 125.522 109.09 125.213 108.501C125.088 108.246 124.907 108.022 124.685 107.844C124.462 107.667 124.203 107.541 123.926 107.476C122.891 107.249 121.752 108.175 120.943 108.722C119.998 109.359 119.094 110.059 118.213 110.78C116.401 112.263 114.685 113.861 113.077 115.564C112.027 116.674 113.703 118.353 114.755 117.243L114.752 117.245Z" fill="#211715"/>
<path d="M178.213 128.428C178.245 128.317 178.402 127.945 178.272 128.229C178.353 128.051 178.437 127.879 178.529 127.709C178.755 127.294 179.011 126.891 179.275 126.499C179.898 125.587 180.568 124.707 181.282 123.865C182.905 121.897 184.656 120.04 186.525 118.305C186.957 117.908 187.397 117.519 187.854 117.15C187.91 117.105 188.161 116.913 187.982 117.048C188.07 116.981 188.16 116.914 188.249 116.849C188.417 116.731 188.588 116.615 188.765 116.508C190.07 115.72 188.879 113.666 187.567 114.459C185.686 115.594 184.077 117.298 182.569 118.872C180.687 120.792 178.959 122.856 177.4 125.047C176.767 125.88 176.269 126.808 175.924 127.796C175.488 129.264 177.778 129.89 178.213 128.428Z" fill="#211715"/>
<path d="M131.935 102.566C123.935 102.383 115.935 102.945 108.039 104.245C107.792 104.273 107.558 104.37 107.363 104.525C107.168 104.68 107.021 104.886 106.938 105.121C106.149 107.759 105.84 110.517 106.026 113.265C106.063 113.448 106.139 113.622 106.248 113.774C106.357 113.927 106.497 114.054 106.658 114.149C106.82 114.243 107 114.302 107.186 114.322C107.373 114.342 107.561 114.323 107.739 114.265C115.621 112.366 121.15 112.018 132.501 112.088C137.123 112.116 147.557 112.83 153.24 113.529C153.581 113.591 153.934 113.519 154.224 113.329C154.515 113.139 154.722 112.845 154.802 112.508C155.106 110.417 154.802 108.96 154.377 106.773C154.29 106.249 154.131 105.739 153.903 105.259C153.794 105.077 153.649 104.92 153.475 104.8C153.302 104.679 153.105 104.596 152.897 104.557C149.766 104.089 138.337 102.662 131.935 102.566Z" fill="white"/>
<path d="M131.935 101.379C127.264 101.289 122.592 101.437 117.937 101.822C115.707 102.018 113.486 102.282 111.266 102.584C110.129 102.739 108.985 102.88 107.854 103.08C107.346 103.161 106.873 103.39 106.494 103.738C106.116 104.087 105.849 104.539 105.727 105.039C105.037 107.388 104.721 109.831 104.789 112.278C104.82 113.416 104.912 114.503 105.995 115.136C106.959 115.699 107.944 115.433 108.954 115.2C112.296 114.42 115.691 113.886 119.112 113.604C126.819 113.077 134.554 113.12 142.254 113.731C144.256 113.868 146.256 114.025 148.254 114.202C149.156 114.281 150.056 114.367 150.956 114.461C151.782 114.595 152.614 114.685 153.449 114.73C153.962 114.735 154.465 114.587 154.893 114.303C155.321 114.02 155.654 113.614 155.849 113.14C156.153 112.052 156.225 110.913 156.062 109.795C155.942 108.651 155.758 107.515 155.509 106.393C155.402 105.423 154.939 104.527 154.21 103.879C153.242 103.144 151.578 103.182 150.412 103.032C148.801 102.823 147.188 102.628 145.574 102.448C141.836 102.028 138.087 101.653 134.33 101.464C133.531 101.424 132.732 101.395 131.933 101.381C130.405 101.355 130.404 103.729 131.933 103.755C138.317 103.861 144.724 104.649 151.047 105.488C151.273 105.518 151.834 105.595 152.234 105.652C152.963 105.758 153.01 106.087 153.17 106.796C153.385 107.708 153.55 108.631 153.664 109.561C153.718 110.031 153.742 110.505 153.738 110.978C153.735 111.26 153.82 112.074 153.644 112.287C153.43 112.549 152.185 112.219 151.876 112.185C151.045 112.094 150.215 112.01 149.384 111.932C147.598 111.763 145.81 111.613 144.02 111.483C136.957 110.923 129.868 110.766 122.788 111.015C119.5 111.132 116.223 111.455 112.975 111.98C111.381 112.245 109.798 112.569 108.223 112.934C107.916 113.059 107.587 113.119 107.256 113.112C107.19 113.096 107.093 112.976 107.197 113.127C107.114 113.008 107.168 112.559 107.163 112.419C107.122 111.244 107.178 110.067 107.33 108.9C107.41 108.299 107.522 107.701 107.651 107.109C107.705 106.864 107.763 106.62 107.823 106.377C107.856 106.052 107.943 105.735 108.08 105.439C107.947 105.585 108.127 105.45 108.156 105.434C108.471 105.334 108.798 105.279 109.129 105.272C109.719 105.183 110.311 105.097 110.902 105.013C113.121 104.698 115.346 104.432 117.578 104.23C122.351 103.821 127.142 103.662 131.932 103.755C133.463 103.775 133.463 101.401 131.935 101.379Z" fill="#211715"/>
<path d="M147.165 135.311C148.401 136.353 149.764 137.234 151.222 137.933C152.834 138.696 154.519 139.298 156.189 139.919L155.48 138.175C154.056 140.662 152.352 142.979 150.403 145.08L151.841 144.894C150.07 143.963 148.475 142.729 147.129 141.248C146.061 140.151 144.385 141.829 145.45 142.927C146.936 144.556 148.693 145.915 150.643 146.944C150.871 147.071 151.134 147.121 151.392 147.088C151.651 147.054 151.892 146.939 152.081 146.759C153.085 145.651 154.027 144.488 154.903 143.275C155.856 142.028 156.733 140.725 157.53 139.373C157.618 139.215 157.67 139.04 157.68 138.859C157.691 138.679 157.662 138.498 157.593 138.33C157.525 138.163 157.42 138.013 157.285 137.892C157.151 137.771 156.991 137.681 156.818 137.63C154.005 136.583 151.181 135.578 148.841 133.633C148.614 133.418 148.314 133.299 148.002 133.299C147.689 133.299 147.389 133.418 147.162 133.633C146.942 133.857 146.819 134.158 146.819 134.472C146.819 134.786 146.942 135.087 147.162 135.311H147.165Z" fill="#211715"/>
<path d="M195.499 108.49C187.492 109.258 179.574 110.766 171.845 112.994C171.602 113.051 171.38 113.175 171.204 113.352C171.028 113.529 170.905 113.751 170.849 113.995C170.372 116.707 170.388 119.484 170.897 122.191C170.956 122.369 171.052 122.533 171.179 122.671C171.306 122.81 171.461 122.92 171.634 122.995C171.806 123.069 171.993 123.106 172.181 123.104C172.368 123.102 172.554 123.06 172.724 122.981C180.368 120.161 185.847 119.157 197.184 117.878C201.801 117.357 212.299 116.826 218.054 116.846C218.401 116.868 218.744 116.755 219.012 116.532C219.28 116.309 219.452 115.992 219.494 115.646C219.596 113.708 219.33 111.769 218.708 109.931C218.538 109.428 218.321 108.944 218.058 108.483C217.94 108.303 217.779 108.156 217.589 108.055C217.4 107.954 217.187 107.903 216.972 107.906C213.79 107.811 201.9 107.822 195.499 108.49Z" fill="white"/>
<path d="M195.499 107.303C190.852 107.789 186.22 108.43 181.641 109.369C179.472 109.814 177.317 110.321 175.173 110.873C174.081 111.154 172.991 111.445 171.905 111.746C170.827 112.043 169.912 112.636 169.686 113.802C169.23 116.295 169.188 118.847 169.562 121.354C169.722 122.498 169.94 123.549 171.107 124.046C172.151 124.491 173.092 124.101 174.088 123.746C177.346 122.579 180.684 121.647 184.075 120.957C191.67 119.52 199.36 118.649 207.083 118.352C209.077 118.252 211.072 118.172 213.068 118.111C214.789 118.061 216.552 118.17 218.262 118.02C218.787 117.99 219.29 117.802 219.706 117.481C220.122 117.161 220.432 116.722 220.594 116.222C220.796 115.087 220.786 113.924 220.565 112.792C220.432 111.655 220.175 110.536 219.799 109.455C219.409 108.37 218.919 107.219 217.733 106.84C216.651 106.494 215.209 106.685 214.087 106.68C212.449 106.673 210.811 106.68 209.173 106.701C205.421 106.746 201.664 106.836 197.92 107.097C197.113 107.153 196.304 107.221 195.499 107.303C195.187 107.311 194.891 107.439 194.67 107.659C194.449 107.88 194.321 108.177 194.313 108.489C194.315 108.803 194.441 109.104 194.663 109.326C194.885 109.548 195.186 109.674 195.5 109.676C201.899 109.119 208.324 108.913 214.746 109.058C215.259 109.062 215.772 109.067 216.285 109.077C216.473 109.065 216.663 109.07 216.851 109.089C216.893 109.098 216.993 109.071 217.029 109.089C217.166 109.159 217.314 109.602 217.385 109.757C217.939 111.141 218.252 112.61 218.309 114.1C218.369 114.598 218.374 115.101 218.322 115.6C218.179 115.774 217.036 115.659 216.695 115.665C215.898 115.672 215.102 115.686 214.306 115.706C212.486 115.749 210.668 115.812 208.853 115.896C201.683 116.184 194.534 116.873 187.44 117.96C184.225 118.447 181.043 119.134 177.913 120.017C176.351 120.468 174.805 120.977 173.274 121.525C172.928 121.705 172.556 121.83 172.172 121.896C172.128 121.896 171.971 121.837 172.032 121.886C172.02 121.688 171.99 121.492 171.943 121.299C171.76 120.137 171.678 118.961 171.698 117.784C171.707 116.703 171.795 115.624 171.96 114.555C172.019 114.177 172.034 114.18 172.418 114.069C172.947 113.918 173.482 113.777 174.015 113.634C175.996 113.1 177.985 112.603 179.987 112.151C183.972 111.253 188.001 110.567 192.055 110.067C193.202 109.925 194.353 109.795 195.506 109.677C195.818 109.668 196.115 109.54 196.335 109.319C196.556 109.099 196.684 108.802 196.693 108.49C196.69 108.174 196.564 107.873 196.34 107.651C196.116 107.428 195.814 107.303 195.499 107.303Z" fill="#211715"/>
<path d="M14.4425 220.592C18.1263 215.75 21.8231 210.913 25.2156 205.859C26.9883 203.361 28.5483 200.718 29.879 197.959C31.0753 195.3 31.6592 192.358 32.3368 189.533C33.6281 184.147 34.7905 178.723 35.9002 173.294C36.2058 171.803 33.9182 171.165 33.6115 172.663C32.6157 177.525 31.5755 182.38 30.4463 187.214C29.739 190.24 29.1486 193.424 28.0134 196.328C27.8686 196.699 27.6295 197.206 27.3719 197.717C27.0574 198.342 26.7192 198.955 26.3739 199.562C25.5775 200.95 24.7219 202.305 23.843 203.642C21.9175 206.572 19.8727 209.424 17.7905 212.246C16.0168 214.649 14.201 217.019 12.3906 219.396C12.2336 219.668 12.1904 219.991 12.2701 220.295C12.3499 220.599 12.5462 220.86 12.8166 221.02C13.0902 221.171 13.4114 221.211 13.7137 221.132C14.016 221.053 14.2762 220.86 14.4402 220.594L14.4425 220.592Z" fill="#211715"/>
<path d="M37.5973 220.592C41.5677 212.494 45.7801 204.378 48.7845 195.857C49.4959 193.608 50.0799 191.321 50.5338 189.007C51.0952 186.558 51.6328 184.104 52.1466 181.644C53.1797 176.73 54.1416 171.802 55.1136 166.876C56.241 161.157 57.391 155.44 58.6567 149.749C58.9879 148.261 56.6985 147.625 56.368 149.117C54.1725 158.987 52.352 168.933 50.3107 178.834C49.2936 183.769 48.2154 188.691 47.0043 193.582C46.493 195.4 45.8529 197.179 45.0889 198.906C44.2729 200.914 43.3971 202.898 42.4999 204.87C40.2776 209.756 37.91 214.575 35.5471 219.394C34.8772 220.759 36.9238 221.965 37.5973 220.592Z" fill="#211715"/>
<path d="M228.529 180.267C230.182 190.368 232.537 200.37 234.752 210.358C235.488 213.676 236.226 216.993 236.967 220.309C237.3 221.799 239.588 221.168 239.256 219.678C236.787 208.603 234.255 197.536 232.06 186.402C231.617 184.153 231.188 181.899 230.818 179.637C230.733 179.335 230.532 179.078 230.258 178.923C229.985 178.767 229.662 178.725 229.358 178.807C229.058 178.896 228.805 179.098 228.65 179.37C228.495 179.642 228.451 179.963 228.527 180.267H228.529Z" fill="#211715"/>
<path d="M199.019 164.06C200.422 178.723 201.733 193.395 202.952 208.076C203.286 212.048 203.617 216.02 203.944 219.993C204.069 221.505 206.443 221.518 206.318 219.993C205.131 205.618 203.89 191.248 202.593 176.882C202.202 172.608 201.802 168.334 201.393 164.06C201.384 163.748 201.257 163.451 201.036 163.23C200.815 163.01 200.518 162.882 200.206 162.874C199.892 162.876 199.591 163.001 199.369 163.224C199.147 163.446 199.021 163.746 199.019 164.06Z" fill="#211715"/>
<path d="M172.406 187.257C174.256 195.953 175.889 204.696 177.52 213.436C177.947 215.727 178.373 218.018 178.797 220.309C179.076 221.808 181.364 221.174 181.086 219.678C179.466 210.955 177.855 202.232 176.116 193.535C175.655 191.229 175.181 188.926 174.695 186.626C174.378 185.133 172.089 185.765 172.406 187.257Z" fill="#211715"/>
<path d="M155.915 173.258C156.034 180.176 156.493 187.084 156.8 193.994C157.072 200.106 157.233 206.218 157.516 212.33C157.634 214.884 157.723 217.441 157.891 219.993C157.991 221.509 160.365 221.52 160.265 219.993C159.92 214.771 159.741 209.531 159.534 204.304C159.277 197.801 159.045 191.301 158.724 184.8C158.535 180.955 158.355 177.107 158.289 173.257C158.262 171.732 155.889 171.727 155.915 173.257V173.258Z" fill="#211715"/>
<path d="M101.4 219.993C101.519 215.238 101.807 210.488 102.007 205.736C102.273 199.42 102.463 193.105 102.782 186.791C102.982 182.853 103.168 178.915 103.234 174.973C103.26 173.445 100.886 173.444 100.86 174.973C100.742 182.019 100.245 189.05 99.9633 196.09C99.7354 201.807 99.5586 207.524 99.2945 213.239C99.1907 215.49 99.0845 217.74 99.0269 219.993C98.9877 221.521 101.361 221.519 101.4 219.993V219.993Z" fill="#211715"/>
</svg>
