<svg width="43" height="42" viewBox="0 0 43 42" fill="none" xmlns="http://www.w3.org/2000/svg">
<path fill-rule="evenodd" clip-rule="evenodd" d="M4 21C4 12.7505 4 8.62575 6.562 6.062C9.1275 3.5 13.2505 3.5 21.5 3.5C29.7495 3.5 33.8742 3.5 36.4362 6.062C39 8.6275 39 12.7505 39 21C39 29.2495 39 33.3742 36.4362 35.9362C33.876 38.5 29.7495 38.5 21.5 38.5C13.2505 38.5 9.12575 38.5 6.562 35.9362C4 33.376 4 29.2495 4 21ZM18.007 10.066C18.1794 10.0651 18.3498 10.0302 18.5087 9.96341C18.6676 9.8966 18.8118 9.79915 18.933 9.67663C19.0542 9.5541 19.1502 9.40889 19.2153 9.2493C19.2804 9.08971 19.3134 8.91886 19.3125 8.7465C19.3116 8.57414 19.2767 8.40365 19.2099 8.24476C19.1431 8.08587 19.0457 7.9417 18.9231 7.82047C18.8006 7.69924 18.6554 7.60334 18.4958 7.53823C18.3362 7.47312 18.1654 7.44008 17.993 7.441C16.0995 7.44975 14.528 7.4935 13.2452 7.7175C11.9292 7.9485 10.804 8.386 9.88175 9.2645C9.0855 10.0222 8.55175 10.7905 8.263 11.8947C8.0005 12.894 7.95325 14.126 7.941 15.7395C7.93962 15.9119 7.9722 16.0828 8.03689 16.2426C8.10157 16.4023 8.19709 16.5478 8.318 16.6706C8.4389 16.7935 8.58281 16.8913 8.74153 16.9586C8.90024 17.0258 9.07064 17.0611 9.243 17.0625C9.41536 17.0639 9.5863 17.0313 9.74607 16.9666C9.90584 16.9019 10.0513 16.8064 10.1742 16.6855C10.297 16.5646 10.3948 16.4207 10.4621 16.262C10.5293 16.1033 10.5646 15.9329 10.566 15.7605C10.58 14.0997 10.636 13.195 10.8022 12.5615C10.9422 12.0312 11.1627 11.669 11.693 11.165C12.1165 10.7625 12.694 10.479 13.6967 10.304C14.7327 10.122 16.0942 10.0765 18.007 10.066ZM25.007 7.441C24.6589 7.43914 24.3243 7.57564 24.0769 7.82047C23.8294 8.0653 23.6894 8.3984 23.6875 8.7465C23.6856 9.09459 23.8221 9.42917 24.067 9.67663C24.3118 9.92408 24.6449 10.0641 24.993 10.066C26.9057 10.0765 28.2672 10.122 29.3032 10.304C30.306 10.479 30.8835 10.7625 31.307 11.165C31.8372 11.669 32.0595 12.0312 32.1977 12.5615C32.364 13.195 32.4217 14.0997 32.434 15.7605C32.4368 16.1086 32.5777 16.4413 32.8258 16.6855C33.0739 16.9297 33.4089 17.0653 33.757 17.0625C34.1051 17.0597 34.4378 16.9188 34.682 16.6706C34.9262 16.4225 35.0618 16.0876 35.059 15.7395C35.0467 14.126 34.9995 12.894 34.737 11.8947C34.4465 10.7922 33.9145 10.0222 33.1182 9.2645C32.196 8.386 31.0707 7.9485 29.7547 7.7175C28.472 7.4935 26.9005 7.44975 25.007 7.441ZM9.25 19.6875C8.9019 19.6875 8.56806 19.8258 8.32192 20.0719C8.07578 20.3181 7.9375 20.6519 7.9375 21C7.9375 21.3481 8.07578 21.6819 8.32192 21.9281C8.56806 22.1742 8.9019 22.3125 9.25 22.3125H33.75C34.0981 22.3125 34.4319 22.1742 34.6781 21.9281C34.9242 21.6819 35.0625 21.3481 35.0625 21C35.0625 20.6519 34.9242 20.3181 34.6781 20.0719C34.4319 19.8258 34.0981 19.6875 33.75 19.6875H9.25ZM10.566 26.2395C10.5632 25.8914 10.4223 25.5587 10.1742 25.3145C9.92604 25.0703 9.59109 24.9347 9.243 24.9375C8.8949 24.9403 8.56217 25.0812 8.318 25.3293C8.07382 25.5774 7.93821 25.9124 7.941 26.2605C7.95325 27.8757 8.0005 29.106 8.263 30.1052C8.5535 31.2077 9.0855 31.9777 9.88175 32.7355C10.804 33.614 11.9292 34.0515 13.2452 34.2825C14.528 34.5065 16.0995 34.5502 17.993 34.559C18.1654 34.5599 18.3362 34.5269 18.4958 34.4618C18.6554 34.3967 18.8006 34.3007 18.9231 34.1795C19.0457 34.0583 19.1431 33.9141 19.2099 33.7552C19.2767 33.5963 19.3116 33.4259 19.3125 33.2535C19.3134 33.0811 19.2804 32.9103 19.2153 32.7507C19.1502 32.5911 19.0542 32.4459 18.933 32.3234C18.8118 32.2008 18.6676 32.1034 18.5087 32.0366C18.3498 31.9698 18.1794 31.9349 18.007 31.934C16.0942 31.9252 14.7327 31.878 13.6967 31.696C12.694 31.521 12.1165 31.2392 11.693 30.835C11.1627 30.331 10.9405 29.9687 10.8022 29.4385C10.636 28.8067 10.58 27.9002 10.566 26.2395ZM35.059 26.2605C35.0604 26.0881 35.0278 25.9172 34.9631 25.7574C34.8984 25.5977 34.8029 25.4522 34.682 25.3293C34.4378 25.0812 34.1051 24.9403 33.757 24.9375C33.4089 24.9347 33.0739 25.0703 32.8258 25.3145C32.5777 25.5587 32.4368 25.8914 32.434 26.2395C32.42 27.902 32.364 28.8067 32.1977 29.4385C32.0577 29.9687 31.8372 30.331 31.307 30.835C30.8835 31.2375 30.306 31.521 29.3032 31.696C28.2672 31.878 26.9057 31.9235 24.993 31.934C24.8206 31.9349 24.6501 31.9698 24.4913 32.0366C24.3324 32.1034 24.1882 32.2008 24.067 32.3234C23.8221 32.5708 23.6856 32.9054 23.6875 33.2535C23.6894 33.6016 23.8294 33.9347 24.0769 34.1795C24.3243 34.4243 24.6589 34.5608 25.007 34.559C26.9005 34.5502 28.472 34.5065 29.7547 34.2825C31.0707 34.0515 32.196 33.614 33.1182 32.7355C33.9145 31.9777 34.4482 31.2095 34.737 30.1052C34.9995 29.106 35.0467 27.8757 35.059 26.2605Z" fill="#81C618"/>
</svg>
