<svg width="25" height="25" viewBox="0 0 25 25" fill="none" xmlns="http://www.w3.org/2000/svg">
<path d="M8.343 4.302C10.372 3.101 11.386 2.5 12.5 2.5C13.614 2.5 14.628 3.1 16.657 4.302L17.343 4.708C19.372 5.91 20.386 6.511 20.943 7.5C21.5 8.49 21.5 9.69 21.5 12.094V12.906C21.5 15.309 21.5 16.511 20.943 17.5C20.386 18.489 19.372 19.09 17.343 20.291L16.657 20.698C14.628 21.899 13.614 22.5 12.5 22.5C11.386 22.5 10.372 21.9 8.343 20.698L7.657 20.291C5.628 19.091 4.614 18.489 4.057 17.5C3.5 16.51 3.5 15.31 3.5 12.906V12.094C3.5 9.69 3.5 8.489 4.057 7.5C4.614 6.511 5.628 5.91 7.657 4.708L8.343 4.302Z" stroke="#61605F" stroke-width="1.5"/>
<path d="M12.5 15.5C14.1569 15.5 15.5 14.1569 15.5 12.5C15.5 10.8431 14.1569 9.5 12.5 9.5C10.8431 9.5 9.5 10.8431 9.5 12.5C9.5 14.1569 10.8431 15.5 12.5 15.5Z" stroke="#61605F" stroke-width="1.5"/>
</svg>
