<svg width="24" height="25" viewBox="0 0 24 25" fill="none" xmlns="http://www.w3.org/2000/svg">
<path d="M15.7289 4.38402C17.1629 2.94402 19.2609 2.91402 20.4219 4.08002C21.5859 5.24802 21.5549 7.36002 20.1189 8.80002L17.6959 11.233C17.5595 11.3747 17.4842 11.5642 17.4862 11.7609C17.4881 11.9575 17.5673 12.1455 17.7065 12.2844C17.8458 12.4233 18.034 12.5019 18.2307 12.5033C18.4273 12.5047 18.6167 12.4288 18.7579 12.292L21.1819 9.85902C23.0929 7.94002 23.3329 4.87702 21.4849 3.02102C19.6349 1.16402 16.5779 1.40602 14.6649 3.32502L9.81895 8.19202C7.90795 10.111 7.66795 13.174 9.51595 15.029C9.58497 15.1008 9.66759 15.1581 9.759 15.1976C9.8504 15.2371 9.94876 15.258 10.0483 15.2591C10.1479 15.2602 10.2467 15.2415 10.3389 15.204C10.4312 15.1665 10.5151 15.111 10.5856 15.0407C10.6562 14.9705 10.7121 14.8869 10.75 14.7948C10.788 14.7028 10.8072 14.6041 10.8065 14.5045C10.8059 14.4049 10.7855 14.3064 10.7464 14.2149C10.7073 14.1233 10.6504 14.0404 10.5789 13.971C9.41495 12.803 9.44695 10.691 10.8819 9.25102L15.7289 4.38402Z" fill="#1E1E1E"/>
<path d="M14.485 9.96998C14.3444 9.82902 14.1536 9.74967 13.9545 9.74939C13.7555 9.74911 13.5644 9.82792 13.4235 9.96848C13.2825 10.109 13.2032 10.2999 13.2029 10.4989C13.2026 10.698 13.2814 10.889 13.422 11.03C14.586 12.198 14.555 14.309 13.119 15.75L8.27197 20.616C6.83697 22.056 4.73897 22.086 3.57797 20.92C2.41397 19.752 2.44597 17.64 3.88097 16.2L6.30497 13.767C6.37451 13.6972 6.42961 13.6144 6.46714 13.5233C6.50467 13.4322 6.5239 13.3346 6.52371 13.2361C6.52353 13.1375 6.50394 13.04 6.46606 12.9491C6.42819 12.8581 6.37277 12.7755 6.30297 12.706C6.23317 12.6364 6.15036 12.5813 6.05927 12.5438C5.96817 12.5063 5.87058 12.4871 5.77206 12.4872C5.67353 12.4874 5.57601 12.507 5.48506 12.5449C5.39411 12.5828 5.31151 12.6382 5.24197 12.708L2.81797 15.141C0.906971 17.061 0.666971 20.123 2.51497 21.979C4.36497 23.837 7.42197 23.594 9.33497 21.675L14.182 16.808C16.093 14.89 16.333 11.825 14.485 9.96998Z" fill="#1E1E1E"/>
</svg>
